<svg xmlns="http://www.w3.org/2000/svg" xmlns:xlink="http://www.w3.org/1999/xlink" version="1.1" style="enable-background:new 0 0 352.734 352.734;" xml:space="preserve" width="352.7340087890625" height="352.7340087890625"><rect id="backgroundrect" width="100%" height="100%" x="0" y="0" fill="none" stroke="none"/> <g class="currentLayer" style=""><title>Layer 1</title><g class="selected"><path d="M265.2351591301083,128.7752209937032 h-16.516696127460996 l-62.74812355734309,40.695307155822064 V200.73304479106517 h33.27828871120872 c5.193688692173132,0 9.419094472566433,4.203526315934097 9.419094472566433,9.370321702929328 V277.34479503421534 c0,5.166795386995232 -4.225405780393303,9.370321702929328 -9.419094472566433,9.370321702929328 H133.85323384933116 c-5.193688692173132,0 -9.419094472566433,-4.203526315934097 -9.419094472566433,-9.370321702929328 v-67.24142854022085 c0,-5.166795386995232 4.225405780393303,-9.370321702929328 9.419094472566433,-9.370321702929328 h33.27828871120872 v-31.262516641539893 L104.3833990031968,128.7752209937032 H87.8667028757358 c-5.193688692173132,0 -9.419094472566433,-4.203526315934097 -9.419094472566433,-9.370321702929328 v-43.66819788810478 c0,-5.166795386995232 4.225405780393303,-9.370321702929328 9.419094472566433,-9.370321702929328 h56.435446441829036 c5.193688692173132,0 9.419094472566433,4.203526315934097 9.419094472566433,9.370321702929328 V119.40489929077387 c0,5.166795386995232 -4.225405780393303,9.370321702929328 -9.419094472566433,9.370321702929328 h-5.424770476566762 l36.97496932187529,23.97990261402321 c0.231709724025135,-0.016866579065272856 0.4627915084187643,-0.03498253435760289 0.69889680986443,-0.03498253435760289 s0.46718708583929536,0.018115955292330087 0.69889680986443,0.03498253435760289 l36.97496932187529,-23.97990261402321 h-5.424770476566762 c-5.193688692173132,0 -9.419094472566433,-4.203526315934097 -9.419094472566433,-9.370321702929328 v-43.66819788810478 c0,-5.166795386995232 4.225405780393303,-9.370321702929328 9.419094472566433,-9.370321702929328 h56.435446441829036 c5.193688692173132,0 9.419094472566433,4.203526315934097 9.419094472566433,9.370321702929328 V119.40489929077387 C274.65425360267477,124.57169467776909 270.42884782228145,128.7752209937032 265.2351591301083,128.7752209937032 z" data-original="#000001" class="active-path" data-old_color="#GOUV_G" fill="#1A91C2" stroke-width="0" id="svg_2"/><rect fill="#ff6f69" stroke-width="1" stroke-dashoffset="" fill-rule="nonzero" id="svg_3" x="75.3709716796875" y="65.00337219238281" width="79.36522252980897" height="64.38949495128537" style="color: rgb(26, 145, 194);" class="" rx="10" ry="10" fill-opacity="1"/><rect fill="#ff6f69" stroke-width="1" stroke-dashoffset="" fill-rule="nonzero" x="198.69111295266035" y="66.11865956380467" width="78.67191369648708" height="62.74958020405059" style="color: rgb(26, 145, 194);" class="" rx="10" ry="10" id="svg_8" fill-opacity="1"/><rect fill="#88d8b0" stroke-width="1" stroke-dashoffset="" fill-rule="nonzero" x="120.77520606797096" y="199.19473898760418" width="110.58986520701445" height="88.53589487116754" style="color: rgb(26, 145, 194);" class="" rx="10" ry="10" id="svg_9" fill-opacity="1"/></g></g></svg>