<svg xmlns="http://www.w3.org/2000/svg" xmlns:xlink="http://www.w3.org/1999/xlink" version="1.1" width="59.438" height="59.75" enable-background="new 0 0 59.438 59.75" xml:space="preserve"><rect id="backgroundrect" width="100%" height="100%" x="0" y="0" fill="none" stroke="none"/>




























<g class="currentLayer" style=""><title>Layer 1</title><path fill="#88d8b0" fill-opacity="1" stroke="none" stroke-opacity="1" stroke-width="1" stroke-dasharray="none" stroke-linejoin="miter" stroke-linecap="butt" stroke-dashoffset="" fill-rule="nonzero" opacity="1" marker-start="" marker-mid="" marker-end="" d="M8.666666746139526,27.94444441795349 C8.666666746139526,23.800798009113713 11.7992634312224,20.44444441795349 15.666666746139526,20.44444441795349 C19.534070061056653,20.44444441795349 22.666666746139526,23.800798009113713 22.666666746139526,27.94444441795349 C22.666666746139526,32.08809082679327 19.534070061056653,35.44444441795349 15.666666746139526,35.44444441795349 C11.7992634312224,35.44444441795349 8.666666746139526,32.08809082679327 8.666666746139526,27.94444441795349 z" id="svg_243" class=""/><path fill="#1a91c2" stroke-dashoffset="" fill-rule="nonzero" marker-start="" marker-mid="" marker-end="" id="svg_246" d="M28.2371245398527,33.466640629532385 C27.933292427146696,33.16280775836425 27.973154940636572,32.97882144260713 28.711861765617982,31.275644983284586 C29.08487286350387,30.41562928719588 29.390061107155674,29.686987259558308 29.390061107155674,29.656441699389912 C29.390061107155674,29.6258984146091 28.36004931531062,29.600906316849183 27.10113885090981,29.600906316849183 L24.81221659466402,29.600906316849183 L24.81221659466402,27.99018340214053 L24.81221659466402,26.379460487432283 L27.119279756928897,26.379460487432283 C28.898155324292993,26.379460487432283 29.40648333715479,26.33093746991338 29.339612353355015,26.167522553249132 C29.29191112995227,26.05095710660274 28.966517824594334,25.27744898837858 28.61651582426869,24.4486182363435 C27.956757739899352,22.886252615098062 27.956964800161217,22.46726427906672 28.617535197865756,22.33739274559299 C28.946276356688273,22.272762639242494 34.06438508319899,27.238589540861337 34.240304771061915,27.792869762605935 C32.53550747738208,29.77195288316476 30.497696984860696,31.843545295330987 28.62054174320633,33.67010122837968 C28.52156352495585,33.67010122837968 28.34902809675738,33.57854418643706 28.237124919083826,33.466640629532385 L28.2371245398527,33.466640629532385 z" style="color: rgb(255, 111, 105);" class="" transform="rotate(-179.80726623535156 29.526260375976562,28.003433227539062) " fill-opacity="1"/><rect fill="#ff6f69" stroke-dashoffset="" fill-rule="nonzero" id="svg_249" x="36.66666666418314" y="21.88888940960169" width="12" height="12" style="color: rgb(255, 111, 105);" class="" fill-opacity="1"/><rect fill="" stroke-dashoffset="" fill-rule="nonzero" id="svg_251" x="43" y="22" width="0" height="6" style="color: rgb(255, 111, 105);"/><rect fill="" stroke-dashoffset="" fill-rule="nonzero" id="svg_253" x="42" y="25" width="0" height="1" style="color: rgb(255, 111, 105);"/></g></svg>