<svg xmlns="http://www.w3.org/2000/svg" xmlns:xlink="http://www.w3.org/1999/xlink" version="1.1" width="59.438" height="59.75" enable-background="new 0 0 59.438 59.75" xml:space="preserve" style=""><rect id="backgroundrect" width="100%" height="100%" x="0" y="0" fill="none" stroke="none"/>




























<g class="currentLayer" style=""><title>Layer 1</title><path fill="#88d8b0" fill-opacity="1" stroke="none" stroke-opacity="1" stroke-width="1" stroke-dasharray="none" stroke-linejoin="miter" stroke-linecap="butt" stroke-dashoffset="" fill-rule="nonzero" opacity="1" marker-start="" marker-mid="" marker-end="" d="M36.33333256840706,27.722222194075584 C36.33333256840706,23.578575785235806 39.46592925348993,20.222222194075584 43.33333256840706,20.222222194075584 C47.200735883324185,20.222222194075584 50.33333256840706,23.578575785235806 50.33333256840706,27.722222194075584 C50.33333256840706,31.865868602915363 47.200735883324185,35.222222194075584 43.33333256840706,35.222222194075584 C39.46592925348993,35.222222194075584 36.33333256840706,31.865868602915363 36.33333256840706,27.722222194075584 z" id="svg_243" class=""/><path fill="#1a91c2" stroke-dashoffset="" fill-rule="nonzero" marker-start="" marker-mid="" marker-end="" id="svg_246" d="M27.90379120403584,33.466640629532385 C27.599959091329836,33.16280775836425 27.639821604819712,32.97882144260713 28.378528429801122,31.275644983284586 C28.751539527687008,30.41562928719588 29.056727771338814,29.686987259558308 29.056727771338814,29.656441699389912 C29.056727771338814,29.6258984146091 28.02671597949376,29.600906316849183 26.76780551509295,29.600906316849183 L24.47888325884716,29.600906316849183 L24.47888325884716,27.99018340214053 L24.47888325884716,26.379460487432283 L26.785946421112037,26.379460487432283 C28.564821988476133,26.379460487432283 29.07315000133793,26.33093746991338 29.006279017538155,26.167522553249132 C28.958577794135408,26.05095710660274 28.633184488777474,25.27744898837858 28.28318248845183,24.4486182363435 C27.623424404082492,22.886252615098062 27.623631464344356,22.46726427906672 28.284201862048896,22.33739274559299 C28.612943020871413,22.272762639242494 33.73105174738213,27.238589540861337 33.906971435245055,27.792869762605935 C32.20217414156522,29.77195288316476 30.164363649043835,31.843545295330987 28.28720840738947,33.67010122837968 C28.188230189138988,33.67010122837968 28.01569476094052,33.57854418643706 27.903791583266965,33.466640629532385 L27.90379120403584,33.466640629532385 z" style="color: rgb(255, 111, 105);" class="" transform="rotate(-0.12869378924369812 29.192928314207123,28.00343322753837) " fill-opacity="1"/><rect fill="#ff6f69" stroke-dashoffset="" fill-rule="nonzero" x="9.888888359069824" y="21.77777848392725" width="12" height="12" style="color: rgb(255, 111, 105);" class="" fill-opacity="1" id="svg_256"/><rect fill="" stroke-dashoffset="" fill-rule="nonzero" id="svg_251" x="43" y="22" width="0" height="6" style="color: rgb(255, 111, 105);"/><rect fill="" stroke-dashoffset="" fill-rule="nonzero" id="svg_253" x="42" y="25" width="0" height="1" style="color: rgb(255, 111, 105);"/></g></svg>