<?xml version="1.0" encoding="UTF-8"?>
<svg width="40px" height="32px" viewBox="0 0 40 32" version="1.1" xmlns="http://www.w3.org/2000/svg" xmlns:xlink="http://www.w3.org/1999/xlink">
    <!-- Generator: Sketch 46.2 (44496) - http://www.bohemiancoding.com/sketch -->
    <title>Group 8</title>
    <desc>Created with Sketch.</desc>
    <defs></defs>
    <g id="Page-1" stroke="none" stroke-width="1" fill="none" fill-rule="evenodd">
        <g id="Graphe_choix_conect" transform="translate(-85.000000, -345.000000)">
            <g id="Group-8" transform="translate(85.000000, 345.000000)">
                <g id="Group-4" fill="#FFFFFF">
                    <rect id="Rectangle" x="0" y="0" width="40" height="32" rx="5"></rect>
                </g>
                <g id="Group-2" transform="translate(6.000000, 8.000000)" fill="#09F5B9">
                    <path d="M14,0 C16.2,0 18,1.8 18,4 C18,6.2 16.2,8 14,8 C11.8,8 10,6.2 10,4 C10,1.8 11.8,0 14,0 L14,0 Z" id="Path"></path>
                    <path d="M5.5,0 C7.425,0 9,1.575 9,3.5 C9,5.425 7.425,7 5.5,7 C3.575,7 2,5.425 2,3.5 C2,1.575 3.575,0 5.5,0 L5.5,0 Z" id="Path"></path>
                    <path d="M11,14 L0,14 L0,12.3333333 C0,10.1666667 3.7125,9 5.5,9 C7.2875,9 11,10.1666667 11,12.3333333 L11,14 L11,14 Z" id="Path"></path>
                    <path d="M22.5,0 C24.425,0 26,1.575 26,3.5 C26,5.425 24.425,7 22.5,7 C20.575,7 19,5.425 19,3.5 C19,1.575 20.575,0 22.5,0 L22.5,0 Z" id="Path"></path>
                    <path d="M28,14 L17,14 L17,12.3333333 C17,10.1666667 20.7125,9 22.5,9 C24.2875,9 28,10.1666667 28,12.3333333 L28,14 L28,14 Z" id="Path"></path>
                    <path d="M8,16 L8,14 C8,11.4 12.05,10 14,10 C15.95,10 20,11.4 20,14 L20,16 L8,16 Z" id="Path" stroke="#FFFFFF"></path>
                </g>
            </g>
        </g>
    </g>
</svg>