<svg xmlns="http://www.w3.org/2000/svg" xmlns:xlink="http://www.w3.org/1999/xlink" version="1.1" width="78.37787628173828" height="55.184329986572266" enable-background="new 0 0 59.438 59.75" xml:space="preserve" style=""><rect id="backgroundrect" width="100%" height="100%" x="0" y="0" fill="none" stroke="none" class="" style=""/>




























<g class="currentLayer" style=""><title>Layer 1</title><path fill="" stroke-dashoffset="" fill-rule="nonzero" marker-start="" marker-mid="" marker-end="" id="svg_10" d="M29.482309293835364,8.083545088703804 L29.50047713030639,8.083545088703804 L29.50047713030639,8.058603358786467 C29.500375431101833,8.05240697153745 29.49826154049285,8.044775899081309 29.49258817772441,8.037388178293211 C29.486998353588284,8.03007309979408 29.47691560387945,8.023876712545068 29.46375282111836,8.023996572321867 C29.45057914201392,8.023880344659517 29.44049639230509,8.030076731908531 29.43491020028341,8.037388178293211 C29.42923683751497,8.044775899081309 29.427119314791536,8.0524106036519 29.42701398347253,8.058606990900913 L29.42701398347253,8.083545088703804 L29.44517455571466,8.083545088703804 L29.44517455571466,8.058606990900913 C29.445076488624554,8.057237683753858 29.446275086392536,8.05210913815268 29.44916624949348,8.04862594039664 C29.452140951226742,8.04507010035163 29.45587839699417,8.042280636455242 29.46374555688946,8.04216804090734 C29.471609084670302,8.042284268569688 29.475350162552182,8.04507010035163 29.478321232170995,8.04862594039664 C29.481219659500837,8.05210913815268 29.48241099303992,8.057241315868307 29.482312925949813,8.058606990900913 L29.482312925949813,8.083545088703804 L29.482309293835364,8.083545088703804 zM29.50047713030639,8.105624712435784 C29.50047713030639,8.105624712435784 29.50047713030639,8.097074715024188 29.50047713030639,8.08717720315223 L29.482309293835364,8.08717720315223 C29.482309293835364,8.097081979253087 29.482309293835364,8.10562834455023 29.482309293835364,8.10562834455023 L29.500484394535285,8.105624712435784 L29.50047713030639,8.105624712435784 zM29.42701398347253,8.10562834455023 L29.44517455571466,8.10562834455023 C29.44517455571466,8.10562834455023 29.44517455571466,8.097078347138638 29.44517455571466,8.08717720315223 L29.42701398347253,8.08717720315223 C29.42701398347253,8.097081979253087 29.42701398347253,8.10562834455023 29.42701398347253,8.10562834455023 z" style="color: rgb(124, 195, 232);" class="" transform="rotate(134.65345764160156 29.46374893188477,8.06481170654297) "/><g class="selected"><rect fill="#4a90d6" stroke-dashoffset="" fill-rule="nonzero" id="svg_243" x="12.132640838623047" y="23.86788558959961" width="41.062843322753906" height="7.4485554695129395" style="color: rgb(124, 195, 232);" class="" fill-opacity="1" rx="2" ry="2"/><path fill="#7cc3e8" stroke-dashoffset="" fill-rule="nonzero" marker-start="" marker-mid="" marker-end="" id="svg_8" d="M62.7985351506658,36.0286692706531 L67.6836916228111,36.0286692706531 L67.6836916228111,28.961658206743557 C67.65634951552346,27.205971479648905 67.08793785517051,25.043777440488896 65.56243032721235,22.950529736608825 C64.05936930389717,20.877870012045463 61.348215642463714,19.12218328495081 57.80887254859522,19.156141753107867 C54.266587652684,19.12321268391665 51.55543399125054,20.878899411011297 50.053360969376115,22.950529736608825 C48.52785344141796,25.043777440488896 47.95846488076404,27.207000878614743 47.930145873175405,28.96268760570939 L47.930145873175405,36.0286692706531 L52.81334854471877,36.0286692706531 L52.81334854471877,28.96268760570939 C52.78698333773212,28.57470947502907 53.109271627937105,27.121584159881433 53.886684447000775,26.13464790138658 C54.6865437707074,25.12713536129053 55.691507753060606,24.336767514408187 57.80691874799325,24.30486784418281 C59.92134174148515,24.337796913374028 60.92728262413934,25.12713536129053 61.72617614868477,26.13464790138658 C62.50554276835038,27.121584159881433 62.82587725795344,28.575738873994908 62.79951205096677,28.96268760570939 L62.79951205096677,36.0286692706531 L62.7985351506658,36.0286692706531 z" style="color: rgb(124, 195, 232);" class="" transform="rotate(-90.0105209350586 57.80691909790039,27.592164993286126) " fill-opacity="1"/></g></g></svg>