<svg xmlns="http://www.w3.org/2000/svg" height="180" width="180" style=""><rect id="backgroundrect" width="100%" height="100%" x="0" y="0" fill="none" stroke="none" class="" style=""/> <g class="currentLayer" style=""><title>Layer 1</title><g id="svg_1" class=""><path d="m91.7989082601968,153.3671688235344 c9.836548350218692,-1.394500312960747 18.45966430749117,-11.638757613744211 23.88587372419796,-26.767686758049667 c-7.844094416216613,-1.7529261146368036 -15.848707722464853,-2.6937938440364517 -23.88587372419796,-2.8058021938008615 zm0,0 " data-original="#000000" class="active-path" data-old_color="#000000" fill="#1A91C2" id="svg_2"/><path d="m107.51403731386485,150.96123562978386 c0.5814599186668982,-0.1680119511653312 1.1606746752163806,-0.33714419801638096 1.7353993948933848,-0.5230774392655156 c0.48492398222747374,-0.1556912792881977 0.9631127654650514,-0.3237035171941709 1.4413018360649887,-0.4905954594144239 c0.5657446459320518,-0.1948941730316772 1.1292441297466842,-0.39538839078873983 1.6904987388062587,-0.6082038539042203 c0.4781890705999397,-0.18145291872818306 0.9518878169650373,-0.3741067871290644 1.4267092880700296,-0.5667606555299444 c0.5477844984421456,-0.22961674425420475 1.094446559506762,-0.4581129060820511 1.6354958589590107,-0.6877296503362553 c0.4725765963499334,-0.20721484490881018 0.9417853058425583,-0.42451034380459796 1.4109940153351808,-0.6429261383861067 c0.5309470756921285,-0.2497780522281627 1.0596487019044794,-0.5040364269772761 1.5838605786067097,-0.7683754557133674 c0.4602289231100316,-0.23409678003451465 0.9193351214801755,-0.47267388258998144 1.379563757227846,-0.7179716122971902 c0.5152318029572805,-0.2755396916681483 1.0270960064196117,-0.5566800015429655 1.5355926103869957,-0.8456609475146093 c0.4602289231100316,-0.259858706215142 0.903620136107687,-0.5208374213753612 1.3515013859778153,-0.7896567726324017 c0.49839380548254414,-0.30578194036972656 0.9945430235723874,-0.611563880739452 1.487324642167283,-0.9173461078498191 c0.44114605088023756,-0.2800200141890992 0.881169664382943,-0.564520637639791 1.3155808036356427,-0.8579816193917416 c0.48492398222747374,-0.3259435350843249 0.9631127654650514,-0.6653280377315017 1.4390566739475696,-1.0047122536380348 c0.4276762276251673,-0.3057822271103675 0.8531070057705564,-0.6104441585350163 1.270680434910878,-0.9173461078498191 c0.4602289231100316,-0.3539454791551063 0.931682794720074,-0.7202119169279878 1.3930341552076344,-1.087598363645944 c0.4097157927729002,-0.3259435350843249 0.8183091481682679,-0.6496467655378536 1.2212900293136346,-0.9845509456640781 c0.4591061983701438,-0.38082741428081046 0.8991298118728493,-0.7750957961244743 1.3447658996255611,-1.1693641779681374 c0.3906332079054643,-0.34610484305828254 0.7835115779283466,-0.6888493725406922 1.1651644247264998,-1.0439151473815154 c0.43890117612517887,-0.4088293583515936 0.8665774037503431,-0.8322199799517545 1.2942533440131505,-1.2522500012354036 c0.37042789829814127,-0.36514642882780396 0.7453461208311135,-0.7246922394489352 1.1079166701241894,-1.098799026577998 c0.06735026572478926,-0.06944514244505698 0.13133350667935098,-0.14449061635614135 0.20092893452155816,-0.21617577669135288 c-5.014248461816468,-2.584026085643479 -10.295654548588836,-4.612491891948432 -15.752171786025425,-6.048435403283453 c-2.8377033034052106,9.030090184346466 -7.88787234756385,17.21339912549261 -14.692523084120948,23.806193858441894 c0.1863363865265991,-0.04816353878538072 0.3726730604155582,-0.08736643252885991 0.5590094469421586,-0.13552997131424036 c0.49165918121736835,-0.1377697024637535 0.9743380013274249,-0.2889806592310002 1.4547719466824183,-0.4312309709563473 zm0,0 " data-original="#000000" class="active-path" data-old_color="#000000" fill="#1A91C2" id="svg_3"/><path d="m153.8164199802211,91.61264349938074 h-27.564336072771464 c-0.10439357280685128,10.73933308271884 -1.6658039670511773,21.414821641199296 -4.64157568876327,31.736364433783997 c6.06828468947094,1.6173964300632035 11.924415495920309,3.9426838184366213 17.44716084906652,6.9276989130755116 c9.067629320285308,-10.905105015994016 14.25811194486825,-24.501763858134325 14.758750912468214,-38.664063346859514 zm0,0 " data-original="#000000" class="active-path" data-old_color="#000000" fill="#1A91C2" id="svg_4"/><path d="m91.7989082601968,87.02479323792723 h29.85537788983677 c-0.11674095868439206,-10.359625677383107 -1.6399861831938467,-20.65540683052783 -4.525957167456408,-30.60732344524507 c-8.313303413071596,1.8918161127862754 -16.80396313892484,2.9021289846309797 -25.329420722380366,3.0141370476547467 zm0,0 " data-original="#000000" class="active-path" data-old_color="#000000" fill="#1A91C2" id="svg_5"/><path d="m91.7989082601968,25.270267627032815 v29.57348895185053 c8.037166001733105,-0.11312807196884549 16.04177930798135,-1.052875792423418 23.88587372419796,-2.8058019070602196 c-5.4262094167067865,-15.128929144305458 -14.04932537397927,-25.373186445088926 -23.88587372419796,-26.767687044790314 zm0,0 " data-original="#000000" class="active-path" data-old_color="#000000" fill="#1A91C2" id="svg_6"/><path d="m91.7989082601968,119.20582961023044 c8.525457583455527,0.11312835870948681 17.016117309308772,1.12344094381355 25.329420722380366,3.0152573433404655 c2.8859709842625616,-9.951916614717234 4.409216208772017,-20.248817776807037 4.525957167456408,-30.608443454190144 h-29.85537788983677 zm0,0 " data-original="#000000" class="active-path" data-old_color="#000000" fill="#1A91C2" id="svg_7"/><path d="m139.05766906775278,48.36072989106772 c-5.522745353146212,2.985014807898248 -11.378876159595583,5.310302196271664 -17.44716084906652,6.927698626334868 c2.9757717217120945,10.321543079325346 4.537182115956422,20.997031637805804 4.64157568876327,31.736364720524644 h27.564336072771464 c-0.5017614049774904,-14.161179479780104 -5.6922440295604355,-27.75783832192042 -14.758750912468214,-38.664063346859514 zm0,0 " data-original="#000000" class="active-path" data-old_color="#000000" fill="#1A91C2" id="svg_8"/><path d="m135.95168598937653,44.88063930123405 c-0.06735055308714938,-0.06832484675933825 -0.13133379404171092,-0.142250024984704 -0.19756162238897063,-0.21281517637483835 c-0.3636929866706059,-0.37410707386970704 -0.740856083958637,-0.7347728934359165 -1.1112842696191378,-1.0987993133186416 c-0.4265535028852778,-0.4200300212836491 -0.8519845683930214,-0.8445406518288882 -1.2920081818957292,-1.2522500012354036 c-0.38053040942062233,-0.3539454791551063 -0.7745312168210313,-0.6888496592813319 -1.1651644247264998,-1.041675129491364 c-0.44563608775271346,-0.3942683818436639 -0.8912724628677845,-0.7918967905225557 -1.3492562238603991,-1.1727242048033675 c-0.3973681195330002,-0.3349041801262263 -0.8048390375508411,-0.6552473837445225 -1.2089423560737314,-0.9767103095672576 c-0.4602286357476713,-0.37186676923891077 -0.9316825073577141,-0.7414935205876622 -1.4053815410851764,-1.0965590086878472 c-0.4153282670229058,-0.3125025675214724 -0.8362692956581758,-0.6149241943153262 -1.2594551990485063,-0.9173461078498191 c-0.4804339453549964,-0.3449848341132054 -0.9631130528274112,-0.6888493725406922 -1.4525270719273586,-1.0170332122558101 c-0.4299211023802255,-0.2889806592310002 -0.8665771163879846,-0.5712409780508981 -1.3032331303957407,-0.847900965404759 c-0.4972716554673738,-0.31922290793257824 -0.993420586194861,-0.631725475454051 -1.4996723154071834,-0.9341473889885463 c-0.44339121299765466,-0.2654590376811699 -0.8912721755054256,-0.5275577617864653 -1.3402758627530864,-0.7818161365355779 c-0.5141093655797505,-0.2934612684925924 -1.0293411685370293,-0.5779616052026433 -1.5490630083667858,-0.8557416015015868 c-0.4602286357476713,-0.22961645751356363 -0.9193348341178138,-0.47939450974172665 -1.379563757227846,-0.7090109672552884 c-0.5287016262123495,-0.26657933336688816 -1.0618935766595374,-0.5230777260061559 -1.6085556377241508,-0.7750957961244743 c-0.4602289231100316,-0.218415794581508 -0.9271927578475985,-0.4312309709563473 -1.4008915042126966,-0.6384461026057973 c-0.5444168989471979,-0.2408171204456205 -1.094446559506762,-0.4581129060820511 -1.6433534953264346,-0.6877293635956138 c-0.473698746365103,-0.1926538684008806 -0.9451529053375052,-0.38306771891160635 -1.4233416885750811,-0.564520637639791 c-0.5578870095646283,-0.2128154631154801 -1.123631655496678,-0.4121896719274664 -1.6893763014287293,-0.6070838449591416 c-0.4781890705999397,-0.1680119511653312 -0.9563778538375163,-0.3349038933855852 -1.4413018360649887,-0.491715468359503 c-0.5747247196770061,-0.18593324124913385 -1.1494494393540111,-0.3550654881001838 -1.7398894317658606,-0.5253177438963096 c-0.47818878323757913,-0.14001000709454978 -0.9586227285925771,-0.2822603188198953 -1.4424242734425163,-0.40994936729667025 c-0.18521394914907008,-0.050403843416176486 -0.3737954977930875,-0.0896064504190143 -0.5601321716820464,-0.13776998920439543 c6.804651023919461,6.592794446208642 11.853697343338213,14.774983665150348 14.692523371483311,23.806193571701254 c5.4621297116865986,-1.4359432245943808 10.75139314746403,-3.4655293265850493 15.770131933515334,-6.054035734749481 zm0,0 " data-original="#000000" class="active-path" data-old_color="#000000" fill="#1A91C2" id="svg_9"/><path d="m25.18359878275648,87.02479323792723 h27.564336360133822 c0.10439328544449122,-10.73933308271884 1.665803679688818,-21.414821641199296 4.640452964023383,-31.736364720524644 c-6.067162252093412,-1.6162761343774865 -11.923292771180423,-3.941563809491543 -17.446038124326634,-6.927698626334868 c-9.067629320285308,10.905105015994016 -14.25811194486825,24.50288386707941 -14.758751199830572,38.664063346859514 zm0,0 " data-original="#000000" class="active-path" data-old_color="#000000" fill="#1A91C2" id="svg_10"/><path d="m87.20111050278078,153.3671688235344 v-29.57348895185053 c-8.037166001733105,0.11312835870948681 -16.04177902061899,1.0528760791640581 -23.88587372419796,2.8058021938008615 c5.4250872666916194,15.128929144305458 14.049325661341626,25.373186445088926 23.88587372419796,26.767686758049667 zm0,0 " data-original="#000000" class="active-path" data-old_color="#000000" fill="#1A91C2" id="svg_11"/><path d="m87.20111050278078,91.61264349938074 h-29.855377602474412 c0.11674095868439206,10.359625677383107 1.6388634584539576,20.65652683947291 4.525957167456408,30.608443454190144 c8.313303125709238,-1.8929364084719946 16.80284041418495,-2.903248993576057 25.329420435018005,-3.0152573433404655 zm0,0 " data-original="#000000" class="active-path" data-old_color="#000000" fill="#1A91C2" id="svg_12"/><path d="m87.20111050278078,25.270267627032815 c-9.836548062856336,1.394500599701389 -18.460786457506345,11.638757900484855 -23.88587372419796,26.767687044790314 c7.844094703578973,1.7540461235818812 15.848707722464853,2.6937938440364517 23.88587372419796,2.8058019070602196 zm0,0 " data-original="#000000" class="active-path" data-old_color="#000000" fill="#1A91C2" id="svg_13"/><path d="m87.20111050278078,59.43160684033691 c-8.525457296093167,-0.11200806302376767 -17.016117309308772,-1.1223209348684724 -25.329420435018005,-3.0141370476547467 c-2.887093709002451,9.951916614717234 -4.409216208772017,20.247697767861954 -4.525957167456408,30.60732344524507 h29.855377602474412 zm0,0 " data-original="#000000" class="active-path" data-old_color="#000000" fill="#1A91C2" id="svg_14"/><path d="m73.49302793110974,27.126241159651492 c-0.1863363865265991,0.04816353878538072 -0.3726730604155582,0.08736643252885991 -0.5590094469421586,0.13552997131424036 c-0.4871691443448926,0.12992935310757114 -0.9676030896998866,0.27441968272307077 -1.4525270719273586,0.41442968981762013 c-0.576969594432064,0.1680122379059726 -1.1494494393540111,0.33714419801638096 -1.7286641959034896,0.5208377081160026 c-0.48829129436005997,0.15793129717835278 -0.9687255270774173,0.32594324834368404 -1.4491591850700516,0.49283547730457977 c-0.5623773337994654,0.19825419986690873 -1.1258768176140963,0.39538839078873983 -1.6826413898011938,0.6059635492734237 c-0.4804339453549964,0.1836932233589791 -0.954132979082459,0.3741067871290644 -1.4300768875649754,0.5690009601607395 c-0.5466620610646165,0.22961645751356363 -1.094446559506762,0.45923291502712676 -1.6343734215814811,0.6877293635956138 c-0.473698746365103,0.20721513164945143 -0.9417853058425583,0.42451063054524024 -1.4109940153351808,0.6429264251267469 c-0.5309467883297689,0.24977776548752142 -1.0596487019044794,0.5040361402366335 -1.5838605786067097,0.7683751689727251 c-0.4602286357476713,0.23409678003451465 -0.920457558857702,0.47379417827569853 -1.379563757227846,0.7179716122971902 c-0.5152318029572805,0.2755399784087898 -1.0259732816797227,0.5578002972286865 -1.5333477356319374,0.8467812432003289 c-0.4602286357476713,0.25649839263926827 -0.9125999224902805,0.5197174124302839 -1.3559911354879342,0.7885367636873253 c-0.4995165302224324,0.30018132216305615 -0.993420586194861,0.6104438717943756 -1.485079480049865,0.9173458211091767 c-0.4422687756201251,0.2822603188198953 -0.881169664382943,0.5667609422705856 -1.3155808036356427,0.8602219240225363 c-0.48492398222747374,0.3259435350843249 -0.9631130528274112,0.6653280377315017 -1.43905696130993,1.0047122536380348 c-0.4276759402628072,0.3057822271103675 -0.8531070057705564,0.6104441585350163 -1.2718028722884074,0.9184664035355377 c-0.47033143423251317,0.3528251834693882 -0.9193351214801755,0.7202116301873467 -1.393033867845274,1.0864780679602253 c-0.40859335539537234,0.3259435350843249 -0.8205543102856906,0.6496467655378536 -1.220167591936105,0.9867909635542331 c-0.4602289231100316,0.37858739639065586 -0.8968849371177918,0.7706154736035242 -1.340276150115446,1.1626438375570274 c-0.3928780826605228,0.3494651566341555 -0.7891237648159932,0.6888496592813319 -1.1730220610939208,1.0506354877926196 c-0.4366560140077605,0.40658934046143763 -0.8620870795155045,0.8288596663758819 -1.288640582400786,1.2477699654550924 c-0.37042789829814127,0.36514614208716234 -0.7475909955861767,0.7258122483940154 -1.1112839822567773,1.1010390444681564 c-0.06622811570962008,0.06944514244505698 -0.13021106930182186,0.14561062530121882 -0.1998067845063886,0.21617577669135288 c5.013126311801299,2.5851460945885574 10.295654548588836,4.613611900893507 15.752171786025425,6.049555412228529 c2.8377033034052106,-9.025609861825517 7.884504748068903,-17.203318471505632 14.685788172493416,-23.79275289087904 zm0,0 " data-original="#000000" class="active-path" data-old_color="#000000" fill="#1A91C2" id="svg_15"/><path d="m44.356056228231544,135.06841163902675 c0.4276759402628072,0.4200303080242894 0.8531070057705564,0.8445409385695297 1.2920081818957292,1.2533702969211244 c0.381653134160511,0.35282547021002947 0.7745312168210313,0.6877293635956138 1.166287149466386,1.0405548338056403 c0.44563608775271346,0.39538839078873983 0.8912721755054256,0.7918970772631997 1.3492559364980374,1.1727244915440092 c0.3973681195330002,0.33266387549543047 0.8025941627957807,0.6541270880588037 1.2089423560737314,0.9767103095672576 c0.4602289231100316,0.37186676923891077 0.9193351214801755,0.7414932338470226 1.4065039784627023,1.098799026577998 c0.4142061170077367,0.31026226289067704 0.8351468582806485,0.6104438717943756 1.2560878869159178,0.9184661167948945 c0.4804339453549964,0.3438648251681276 0.9653579275824703,0.6877293635956138 1.4547719466824183,1.0181532212008901 c0.4299211023802255,0.2889809459716418 0.8665771163879846,0.5712412647915376 1.3032331303957407,0.8490212610904821 c0.4972716554673738,0.31810289898750116 0.9934208735572185,0.6306051797683314 1.4996723154071834,0.9330270933028265 c0.44339121299765466,0.26657933336688816 0.8912724628677845,0.5275580485271065 1.340276150115446,0.7829364322212967 c0.5141093655797505,0.29346098175195123 1.0293408811746707,0.5779616052026433 1.5490627210044257,0.854621592556508 c0.4591061983701438,0.22961645751356363 0.9193351214801755,0.4793942230010859 1.379563757227846,0.7090109672552884 c0.5287019135747106,0.26657904662624676 1.0618938640218953,0.5230774392655156 1.608555925086511,0.7762158050695496 c0.4602286357476713,0.21617548995071129 0.9271924704852386,0.42899095306619184 1.4008915042126966,0.6373258069200788 c0.5444168989471979,0.24081740718626116 1.0933238347668723,0.45811319282269164 1.6433534953264346,0.6877296503362553 c0.473698746365103,0.1926538684008806 0.9451526179751446,0.3830674321709659 1.4233414012127215,0.564520637639791 c0.5578872969269885,0.21393518531991543 1.1236319428590378,0.4133096808725438 1.6893765887910897,0.6082035671635799 c0.47818878323757913,0.16689222896089537 0.9563778538375163,0.3349041801262263 1.4413018360649887,0.4905954594144239 c0.5747247196770061,0.18593352798977522 1.1494494393540111,0.3561857837859012 1.7398891444035018,0.5253177438963096 c0.4781890705999397,0.14001000709454978 0.9586230159549353,0.2822603188198953 1.4413018360649887,0.41106966298238806 c0.1863366738889588,0.05040355667553534 0.37491822253297635,0.0896064504190143 0.5612546090595759,0.13776998920439543 c-6.8046507365571,-6.593914741894362 -11.853697343338213,-14.776103674095427 -14.692523084120948,-23.807313867386974 c-5.456517237436595,1.4370635202800996 -10.739045761586487,3.4655296133256916 -15.752171786025425,6.051795716859326 c0.06735055308714938,0.06832484675933825 0.13133350667935098,0.142250024984704 0.19868405976650017,0.21281517637483835 c0.3446104018031692,0.37186676923891077 0.7161607374788371,0.732532875545762 1.0910789600118127,1.0965590086878472 zm0,0 " data-original="#000000" class="active-path" data-old_color="#000000" fill="#1A91C2" id="svg_16"/><path d="m39.94234998258704,130.27670684624024 c5.522745353146212,-2.9850150946388876 11.378875872233222,-5.310302483012305 17.446038124326634,-6.9276989130755116 c-2.974649284334565,-10.321542792584708 -4.5360596785788925,-20.99703135106516 -4.640452964023383,-31.736364433783997 h-27.564336360133822 c0.5017616923398506,14.16117919303946 5.691121879545265,27.75783803517977 14.758751199830572,38.664063346859514 zm0,0 " data-original="#000000" class="active-path" data-old_color="#000000" fill="#1A91C2" id="svg_17"/></g><path fill="#f3c02f" stroke-dashoffset="" fill-rule="nonzero" marker-start="" marker-mid="" marker-end="" id="svg_18" d="M143.68312071047524,145.9151114691878 L126.15384833058954,128.70726719302476 C128.51535569581657,124.88464335228261 129.90028136940347,120.41243908627955 129.90274127290013,115.61665200622305 C129.90028136940347,101.62773229084137 118.36087402530063,90.2975042044202 104.11803272869247,90.29267461018402 C89.87273152858762,90.2975042044202 78.32840437747618,101.62773229084137 78.32840437747618,115.61423720909802 C78.32840437747618,129.59349773600655 89.87273152858762,140.92372582241325 104.11803272869247,140.92372582241325 C109.00586099404364,140.92372582241325 113.56160228614692,139.5641950439431 117.45562953527983,137.24598980886944 L134.98982172218842,154.45624888215806 L143.68312071047524,145.9151114691878 zM88.16555849581223,115.61423720909802 C88.18031791683475,106.96443392574064 95.3066583721471,99.9711814666115 104.11557282519567,99.95186308965096 C112.91956747122273,99.9711814666115 120.05082773354155,106.96443392574064 120.06558715457913,115.61423720909802 C120.04836783004515,124.2592108982193 112.91956747122273,131.25246335736244 104.11557282519567,131.27178173432293 C95.3066583721471,131.25246335736244 88.18031791683475,124.2592108982193 88.16555849581223,115.61423720909802 z" style="color: rgb(0, 0, 0);" class="" fill-opacity="1" transform="rotate(-0.4824398159980774 107.00576782226263,112.87446594238324) "/><path fill="" stroke-dashoffset="" fill-rule="nonzero" marker-start="" marker-mid="" marker-end="" id="svg_20" d="M180.74136001695692,253.35966502548848 L180.70573001775333,253.32403502628486 C180.71053001764602,253.3161200264618 180.71334501758312,253.30686002666874 180.713350017583,253.29693002689072 C180.71334501758312,253.26796502753814 180.68989001810738,253.2445050280625 180.66094001875445,253.24449502806272 C180.63198501940164,253.2445050280625 180.60852001992612,253.26796502753814 180.60852001992612,253.29692502689082 C180.60852001992612,253.32587002624385 180.63198501940164,253.34933002571947 180.66094001875445,253.34933002571947 C180.6708750185324,253.34933002571947 180.68013501832542,253.3465150257824 180.6880500181485,253.3417150258897 L180.72369001735188,253.3773500250932 L180.74136001695692,253.35966502548848 zM180.6285150194792,253.29692502689082 C180.62854501947854,253.27901502729114 180.64303001915476,253.26453502761478 180.66093501875457,253.26449502761568 C180.67883001835457,253.26453502761478 180.69332501803058,253.27901502729114 180.69335501802993,253.29692502689082 C180.6933200180307,253.31482502649072 180.67883001835457,253.32930502616708 180.66093501875457,253.32934502616618 C180.64303001915476,253.32930502616708 180.62854501947854,253.31482502649072 180.6285150194792,253.29692502689082 z" style="color: rgb(0, 0, 0);" class=""/><path fill="#7cc3e8" fill-opacity="1" stroke="none" stroke-opacity="1" stroke-width="1" stroke-dasharray="none" stroke-linejoin="miter" stroke-linecap="butt" stroke-dashoffset="" fill-rule="nonzero" opacity="1" marker-start="" marker-mid="" marker-end="" d="M86.5,115.70652309496998 C86.5,105.59962977727385 94.34547593786165,97.41304618993996 104.03124870065376,97.41304618993996 C113.7170214634459,97.41304618993996 121.56249740130754,105.59962977727385 121.56249740130754,115.70652309496998 C121.56249740130754,125.81341641266611 113.7170214634459,134 104.03124870065376,134 C94.34547593786165,134 86.5,125.81341641266611 86.5,115.70652309496998 z" id="svg_25" class=""/></g></svg>