<svg xmlns="http://www.w3.org/2000/svg" xmlns:xlink="http://www.w3.org/1999/xlink" version="1.1" width="59.4379997253418" height="59.75" enable-background="new 0 0 59.438 59.75" xml:space="preserve" style=""><rect id="backgroundrect" width="100%" height="100%" x="0" y="0" fill="none" stroke="none"/>




























<g class="currentLayer" style=""><title>Layer 1</title>
	
		
		
			
				
				
				
				
					<path fill="#7cc3e8" d="M32.11,17.032179397583008 c0.23500000000000001,-0.515 0.5690000000000002,-0.779 1.169,-0.6290000000000002 c0.6670000000000003,0.16700000000000007 1.2690000000000001,-0.08700000000000004 1.505,-0.6800000000000004 c0.201,-0.501 0.11700000000000003,-1.117 0.17,-1.832 c1.066,-0.6250000000000002 2.365,-1.046 3.9,-0.6850000000000004 c-1.6480000000000001,-1.479 -4.636,-1.055 -6.486,0.8400000000000002 c-1.838,1.8840000000000003 -2.191,4.894 -0.6480000000000002,6.567 C31.370000000000005,19.281179397583006 31.601,18.13817939758301 32.11,17.032179397583008 z" id="svg_196" class="" fill-opacity="1"/>
					<path fill="#7cc3e8" d="M35.732,32.457179397583005 c0.08500000000000003,-0.7510000000000002 0.16300000000000006,-1.504 0.23800000000000004,-2.205 c-0.07900000000000003,-0.8960000000000002 -0.09500000000000006,-1.739 -0.23500000000000001,-2.561 c-0.2840000000000001,-1.6640000000000001 -0.6350000000000002,-3.231 -2.5860000000000003,-3.908 c-0.912,-0.3150000000000001 -1.7160000000000002,-0.516 -2.628,-0.267 c-2.24,0.6120000000000002 -4.085,1.901 -5.884,3.3200000000000003 c-2.101,1.6580000000000004 -1.84,4.737 0.055000000000000014,6.252 c1.798,1.439 3.745,2.574 5.9879999999999995,3.111 c0.6370000000000002,0.15200000000000005 1.444,0.268 1.992,0.009000000000000006 C34.242,35.46817939758301 35.52,34.36617939758301 35.732,32.457179397583005 z" id="svg_197" class="" fill-opacity="1"/>
					<path fill="#7cc3e8" d="M12.428,27.130179397583007 c-1.488,1.919 -1.604,4.904 -0.23600000000000004,6.049 c-0.262,-1.415 -0.17500000000000004,-2.55 0.4190000000000001,-3.561 c0.17600000000000005,-0.3010000000000001 0.6260000000000002,-0.6380000000000002 0.9380000000000002,-0.6250000000000002 c1.669,0.06100000000000002 2.321,-0.782 1.6380000000000003,-2.47 c0.7100000000000002,-0.264 1.347,-0.5810000000000002 2.02,-0.7250000000000002 c0.6460000000000002,-0.138 1.332,-0.09600000000000006 2.021,-0.132 C17.227,24.20817939758301 14.173000000000002,24.877179397583006 12.428,27.130179397583007 z" id="svg_198" class="" fill-opacity="1"/>
					<path fill="#7cc3e8" d="M33.413,37.40017939758301 c-1.758,1.8780000000000001 -2.036,5.177 -0.4860000000000001,6.515 c-0.4310000000000001,-1.318 -0.19300000000000006,-2.518 0.3460000000000002,-3.684 c0.22600000000000006,-0.4870000000000001 0.5750000000000002,-0.7260000000000002 1.1280000000000001,-0.5900000000000002 c0.6680000000000003,0.16600000000000006 1.263,-0.05800000000000002 1.512,-0.6530000000000002 c0.20600000000000004,-0.4960000000000001 0.14300000000000004,-1.105 0.21900000000000006,-1.867 c1.012,-0.5980000000000002 2.307,-1.034 3.829,-0.6640000000000003 C38.451,34.94117939758301 35.255,35.435179397583006 33.413,37.40017939758301 z" id="svg_199" class="" fill-opacity="1"/>
					<path fill-rule="evenodd" clip-rule="evenodd" fill="#1a91c2" d="M40.636,35.65917939758301 c-1.405,-0.8170000000000002 -2.042,-1.925 -2.301,-3.401 c-0.3740000000000001,-2.13 -0.461,-4.263 0.04400000000000002,-6.384 c0.24900000000000005,-1.046 0.777,-1.8810000000000002 1.7080000000000002,-2.516 c2.193,-1.495 3.227,-4.304 2.607,-6.831 c-0.6790000000000004,-2.766 -2.708,-4.658 -5.431,-5.073 c-0.14600000000000005,-0.023000000000000013 -1.073,-0.16800000000000007 -1.808,-0.030000000000000013 c-3.906,0.7410000000000002 -5.8420000000000005,3.223 -5.837,7.204 c0.0010000000000000005,0.7160000000000002 -0.3200000000000001,1.558 -0.7650000000000002,2.129 c-1.348,1.727 -3.187,2.825 -5.204,3.6260000000000003 c-1.477,0.5850000000000002 -2.9130000000000003,0.6370000000000002 -4.375,-0.11900000000000004 c-1.092,-0.5640000000000002 -2.309,-0.6700000000000004 -3.516,-0.502 c-2.7430000000000003,0.3840000000000001 -4.93,2.37 -5.5440000000000005,4.969 c-0.6300000000000002,2.6670000000000007 0.3900000000000001,5.458 2.5700000000000003,7.006 c2.253,1.602 5.191,1.612 7.582,0.11600000000000003 c0.521,-0.3270000000000001 1.215,-0.562 1.818,-0.534 c2.6420000000000003,0.12300000000000003 4.819,1.387 6.784,3.053 c1.021,0.8680000000000002 1.522,1.983 1.6070000000000002,3.359 c0.15700000000000006,2.567 1.475,4.422 3.801,5.492 c0.7200000000000002,0.3330000000000002 1.5310000000000001,0.462 2.302,0.6840000000000004 c0.3660000000000001,0 0.7300000000000002,0 1.097,0 c0.543,-0.15800000000000006 1.103,-0.281 1.629,-0.4820000000000001 c2.496,-0.9550000000000002 3.966,-2.807 4.267,-5.429 C43.979,39.310179397583006 43,37.02917939758301 40.636,35.65917939758301 zM17.206,25.79817939758301 c-0.6730000000000004,0.14400000000000004 -1.31,0.461 -2.02,0.7250000000000002 c0.6840000000000004,1.6880000000000004 0.031000000000000014,2.5300000000000002 -1.6380000000000003,2.47 c-0.3120000000000001,-0.013000000000000006 -0.7620000000000002,0.3250000000000001 -0.9380000000000002,0.6250000000000002 c-0.5950000000000002,1.011 -0.6810000000000004,2.146 -0.4190000000000001,3.561 c-1.368,-1.145 -1.251,-4.13 0.23600000000000004,-6.049 c1.746,-2.253 4.799,-2.9210000000000003 6.8,-1.464 C18.538,25.70217939758301 17.853,25.660179397583008 17.206,25.79817939758301 zM32.368,14.046179397583009 c1.85,-1.895 4.838,-2.319 6.486,-0.8400000000000002 c-1.5350000000000001,-0.3610000000000001 -2.834,0.06000000000000002 -3.9,0.6850000000000004 c-0.05300000000000002,0.7150000000000002 0.031000000000000014,1.331 -0.17,1.832 c-0.23600000000000004,0.5930000000000002 -0.8370000000000002,0.8470000000000002 -1.505,0.6800000000000004 c-0.6000000000000002,-0.15000000000000005 -0.935,0.11400000000000003 -1.169,0.6290000000000002 c-0.509,1.106 -0.7400000000000002,2.249 -0.3900000000000001,3.581 C30.177,18.94017939758301 30.53,15.931179397583008 32.368,14.046179397583009 zM30.679000000000002,36.20017939758301 c-2.243,-0.537 -4.19,-1.6720000000000004 -5.9879999999999995,-3.111 c-1.895,-1.5150000000000001 -2.156,-4.594 -0.055000000000000014,-6.252 c1.799,-1.419 3.645,-2.708 5.884,-3.3200000000000003 c0.912,-0.24900000000000005 1.7160000000000002,-0.048000000000000015 2.628,0.267 c1.952,0.6770000000000004 2.302,2.245 2.5860000000000003,3.908 c0.14,0.8220000000000002 0.15600000000000006,1.665 0.23500000000000001,2.561 c-0.07500000000000002,0.7010000000000002 -0.15200000000000005,1.454 -0.23800000000000004,2.205 c-0.21200000000000005,1.908 -1.49,3.011 -3.061,3.7510000000000003 C32.123,36.46817939758301 31.316000000000003,36.35217939758301 30.679000000000002,36.20017939758301 zM36.131,37.121179397583006 c-0.07600000000000003,0.7610000000000002 -0.013000000000000006,1.371 -0.21900000000000006,1.867 c-0.24900000000000005,0.5960000000000002 -0.8440000000000002,0.8190000000000002 -1.512,0.6530000000000002 c-0.553,-0.136 -0.902,0.10300000000000002 -1.1280000000000001,0.5900000000000002 c-0.539,1.167 -0.777,2.366 -0.3460000000000002,3.684 c-1.549,-1.338 -1.272,-4.6370000000000005 0.4860000000000001,-6.515 c1.842,-1.965 5.038,-2.459 6.547,-0.9430000000000002 C38.438,36.08717939758301 37.143,36.52317939758301 36.131,37.121179397583006 z" id="svg_200" class=""/>
				
			
		
	
<g id="colot" display="none" class="">
	<rect x="-132.28372192382812" display="inline" fill-rule="evenodd" clip-rule="evenodd" fill="#414042" width="68.75" height="20.378000259399414" id="svg_229" y="12.133891105651855"/>
	<text transform="matrix(1,0,0,1,-117.3125,-1.2158) " display="inline" font-family="'MyriadPro-Regular'" font-size="16.3921" id="svg_230" y="12.133891105651855" x="-12.970711708068848">utilitaire</text>
	<rect x="35.967288970947266" y="-92.7411117553711" display="inline" fill="#2A68D8" width="70.69100189208984" height="19" id="svg_231"/>
	<rect x="35.967288970947266" y="-63.99110794067383" display="inline" fill="#33CC33" width="70.69100189208984" height="19" id="svg_232"/>
	<text transform="matrix(1,0,0,1,30.9951,-41.2061) " display="inline" font-family="'MyriadPro-Regular'" font-size="12" id="svg_233" y="12.133891105651855" x="-12.970711708068848">#686aba </text>
	<text transform="matrix(1,0,0,1,72.625,-21.167) " display="inline" font-family="'MyriadPro-Regular'" font-size="12" id="svg_234" y="12.133891105651855" x="-12.970711708068848">#0c449f</text>
	
		<rect x="-38.815711975097656" y="-84.57411193847656" display="inline" fill-rule="evenodd" clip-rule="evenodd" fill="#686ABA" width="58.141998291015625" height="16.16699981689453" id="svg_235"/>
	
		<rect x="-122.14270782470703" y="-81.9911117553711" display="inline" fill-rule="evenodd" clip-rule="evenodd" fill="#0C449F" width="61.5" height="16.5" id="svg_236"/>
	
		<rect x="71.00428771972656" y="-39.3241081237793" display="inline" fill-rule="evenodd" clip-rule="evenodd" fill="#1FA463" width="61.5" height="16.5" id="svg_237"/>
	<rect x="-125.5337142944336" y="-124.2411117553711" display="inline" fill="#D67C2B" width="86.71700286865234" height="23.5" id="svg_238"/>
	
		<rect x="-43.199710845947266" y="-38.5741081237793" display="inline" fill-rule="evenodd" clip-rule="evenodd" fill="#6D4118" width="59.63999938964844" height="15.75" id="svg_239"/>
	
		<rect x="-111.0337142944336" y="-53.24110794067383" display="inline" fill-rule="evenodd" clip-rule="evenodd" fill="#CC3333" width="63.25" height="18.75" id="svg_240"/>
	<rect x="-82.39270782470703" y="-22.15810775756836" display="inline" fill="#DD4B3E" width="43.5" height="12.875" id="svg_241"/>
	<text transform="matrix(1,0,0,1,-117.5625,-94.7573) " display="inline" font-family="'MyriadPro-Regular'" font-size="11.5599" id="svg_242" y="12.133891105651855" x="-12.970711708068848">source externe</text>
</g></g></svg>