<svg xmlns="http://www.w3.org/2000/svg" xmlns:xlink="http://www.w3.org/1999/xlink" version="1.1" style="enable-background:new 0 0 458.135 458.135;" xml:space="preserve" width="154.7142791748047" height="146.85714721679688"><rect id="backgroundrect" width="100%" height="100%" x="0" y="0" fill="none" stroke="none" class="" style=""/> <g class="currentLayer" style=""><title>Layer 1</title>
	<path d="M84.05551256024435,38.58382610477804 V32.21898582457317 h6.583718521281785 c0.9760492992467553,0 1.7651401009069794,-0.7908279305576604 1.7651401009069794,-1.7651401009069794 V25.45373733350931 c0,-0.9743121703493193 -0.7888736605480453,-1.7651401009069794 -1.7651401009069794,-1.7651401009069794 H62.90683679841189 c-0.9743121703493193,0 -1.7651401009069794,0.7908279305576604 -1.7651401009069794,1.7651401009069794 v5.000325531269027 c0,0.9743121703493193 0.7908279305576604,1.7651401009069794 1.7651401009069794,1.7651401009069794 h7.7538919748169945 v6.363103151307434 C50.3395777899124,41.796211718361235 34.80009123790019,59.38659607490854 34.80009123790019,80.61148836711607 c0,23.50335398230674 19.05369831152487,42.55705229383161 42.55705229383161,42.55705229383161 s42.55705229383161,-19.05369831152487 42.55705229383161,-42.55705229383161 C119.91419582556341,59.38659607490854 104.37840067245827,41.796211718361235 84.05551256024435,38.58382610477804 zM77.3571435317318,114.93281255820443 c-18.924933632002436,0 -34.32132419108835,-15.396607700198096 -34.32132419108835,-34.32132419108835 s15.396607700198096,-34.32132419108835 34.32132419108835,-34.32132419108835 c18.926670760899874,0 34.32132419108835,15.396607700198096 34.32132419108835,34.32132419108835 C111.67846772282019,99.53794198690377 96.28381429263169,114.93281255820443 77.3571435317318,114.93281255820443 z" data-original="#010002" class="active-path" fill="#1a91c2" id="svg_3" fill-opacity="1"/>
	<path d="M76.77303393996903,49.8254386234218 v30.786049743694267 h30.786049743694267 C107.55886654255107,63.60868786012634 93.77561730584651,49.8254386234218 76.77303393996903,49.8254386234218 z" data-original="#010002" class="active-path" fill="#ff6f69" id="svg_4" fill-opacity="1"/>
	<path d="M76.41589107431122,101.09310663233316 h5.4982301014965715 v9.118189582640655 h-5.4982301014965715 V101.09310663233316 zM47.86791477385083,76.28886024695919 h9.157057841720782 v6.86426483821767 H47.86791477385083 C47.86791477385083,83.15312508517684 47.86791477385083,76.28886024695919 47.86791477385083,76.28886024695919 zM98.27765824854112,92.74077375234953 l5.009228316868386,2.892971037567192 c0.44470499774357286,-0.7977764461474036 0.855970264211505,-1.6185698501858319 1.2320586705063599,-2.4569516843107975 l-4.869823722849161,-2.813497390509502 L98.27765824854112,92.74077375234953 zM89.17531996708954,100.80886891649021 l3.4683949848428077,5.9605235293266805 c0.7819251449583016,-0.48531038572113455 1.5408333320255787,-1.0025405149326518 2.2752045734165742,-1.5549475043172443 l-3.371332907698581,-5.785724934022202 L89.17531996708954,100.80886891649021 zM64.30766837695916,106.78698087590345 l-2.3722666505608014,-1.3821031790223801 l3.4807720282370385,-5.974637701618347 l2.3740037794582367,1.3803660501249446 L64.30766837695916,106.78698087590345 zM52.69192172203009,96.20743160829494 l-1.3714632645255858,-2.3774780372531086 l6.001128917304244,-3.466657855945372 l1.3714632645255858,2.3792151661505447 L52.69192172203009,96.20743160829494 zM57.31615884700429,69.08042674593707 l-5.9993917884068075,-3.466657855945372 l1.373200393423021,-2.3774780372531086 l5.9993917884068075,3.466657855945372 L57.31615884700429,69.08042674593707 zM65.41248235572834,60.01326532465856 l-3.4807720282370385,-5.974637701618347 l2.3740037794582367,-1.3821031790223801 l3.4807720282370385,5.974637701618347 L65.41248235572834,60.01326532465856 zM40.09122298225499,40.518336273185014 c-3.579571234278701,3.3077105618299942 -3.798449475355615,8.892362825973997 -0.4907389135256213,12.471934060252698 l12.96245583266614,-11.981195146727078 C49.25349221066807,37.4295039524319 43.670577075421505,37.21062571135502 40.09122298225499,40.518336273185014 z" data-original="#010002" class="active-path" fill="#f3c02f" id="svg_5" fill-opacity="1"/>
</g></svg>