<svg xmlns="http://www.w3.org/2000/svg" height="221.37930964176218" width="239.99999868458724" style=""><rect id="backgroundrect" width="100%" height="100%" x="0" y="0" fill="none" stroke="none" class="" style=""/> <g class="currentLayer" style=""><title>Layer 1</title><g class=""><g id="svg_1" class=""><path d="m79.79790080482158,68.20331874508327 v15.866265024482386 h14.537838527804873 zm0,0 " data-original="#000000" class="active-path" data-old_color="#000000" fill="#1A91C2" id="svg_2"/><path d="m74.95195462888665,89.35833877772644 v-23.799397536723585 h-31.82171322197289 v10.577510016321595 h7.1761647849957955 l1.4197108744967144,1.548751259749129 l19.383784703739828,21.15502003264319 l1.4190797707730682,1.549440031943025 v39.56443244080493 h24.229730879674783 v-50.59575624473828 zm0,0 " data-original="#000000" class="active-path" data-old_color="#000000" fill="#1A91C2" id="svg_3"/><path d="m50.72222374921186,99.93584879404804 h14.537838527804873 l-14.537838527804873,-15.866265024482386 zm0,0 " data-original="#000000" class="active-path" data-old_color="#000000" fill="#1A91C2" id="svg_4"/><path d="m45.876277573276894,81.42520626548524 h-31.82171322197289 v74.39515378146187 h53.6284710136802 v-50.59575624473828 h-21.80675779170731 zm0,0 " data-original="#000000" class="active-path" data-old_color="#000000" fill="#1A91C2" id="svg_5"/></g><path fill="#f3c02f" stroke-dashoffset="" fill-rule="nonzero" marker-start="" marker-mid="" marker-end="" id="svg_11" d="M119.7480588248431,147.24352020720545 C118.0414312577521,145.53688837982824 118.26533933583232,144.5034356758256 122.4146618688709,134.93667898506135 C124.50986838543358,130.10596348891656 126.22411335160291,126.01317500835651 126.22411335160291,125.84160033650559 C126.22411335160291,125.67003844552417 120.4385283364634,125.52965761936062 113.36721752632897,125.52965761936062 L100.51032170104769,125.52965761936062 L100.51032170104769,116.48221327681513 L100.51032170104769,107.43476893427172 L113.4691151500783,107.43476893427172 C123.46107437600998,107.43476893427172 126.31635715750389,107.16221473123284 125.94074227145546,106.24431175129715 C125.67280409297692,105.58956264382087 123.84506712295857,101.24476094997371 121.87910290353474,96.58921155041696 C118.17323611951483,87.81339053747654 118.17439917877113,85.45992948231738 121.88482873371868,84.73043997170174 C123.73137062518299,84.36741211339196 152.47983097137705,112.26050415103828 153.46797335773323,115.37390088154683 C143.89211242656447,126.49042764044506 132.44571351873273,138.1265798788993 121.9017165245242,148.38636012533271 C121.34575502887202,148.38636012533271 120.3766220578974,147.87208344026095 119.74806095498508,147.24352020720545 L119.7480588248431,147.24352020720545 z" style="color: rgb(0, 0, 0);" class="" fill-opacity="1"/><path fill="#1A91C2" stroke-dashoffset="" fill-rule="nonzero" marker-start="" marker-mid="" marker-end="" id="svg_13" d="M120.98409556303415,108.25158586157352 C120.9507580309923,108.21824824631047 120.9551318867013,108.19806061820832 121.03618540743695,108.01118208427083 C121.07711350195922,107.91681812593376 121.1105998334761,107.83686895029507 121.1105998334761,107.83351738359667 C121.1105998334761,107.83016606656182 120.99758330336576,107.82742384536459 120.85945120280863,107.82742384536459 L120.60830257214117,107.82742384536459 L120.60830257214117,107.65068964073619 L120.60830257214117,107.47395543610789 L120.86144168706087,107.47395543610789 C121.05662619437742,107.47395543610789 121.11240173852788,107.46863131932214 121.10506441810695,107.45070085775274 C121.09983047147283,107.43791088542918 121.06412716925455,107.3530388439379 121.02572371414692,107.26209660775639 C120.95333272794849,107.09066833608537 120.95335544733143,107.04469545667769 121.02583556341672,107.03044549353213 C121.06190620393627,107.02335405009602 121.62348316215892,107.56822210888214 121.64278569137048,107.62903969161893 C121.4557293137652,107.84619167847612 121.2321335523277,108.07349411139931 121.02616545218567,108.27391027676747 C121.01530521265074,108.27391027676747 120.99637401635721,108.26386431489654 120.98409560464472,108.25158586157352 L120.98409556303415,108.25158586157352 z" style="color: rgb(0, 0, 0);" class=""/><g class="" fill-opacity="1" fill="#88d8b0"><path d="m203.09361813980962,93.83522860197775 h20.356889843689963 l-20.356889843689963,-20.423620056460365 zm0,0 " data-original="#000000" class="active-path" data-old_color="#000000" fill="#88d8b0" id="svg_9"/><path d="m197.83442894767563,72.98770689614143 h-41.02124052920712 v82.48781746133405 h69.1322429223186 v-56.09953462417743 h-28.111002393111477 zm0,0 " data-original="#000000" class="active-path" data-old_color="#000000" fill="#88d8b0" id="svg_10"/></g></g></g></svg>