<?xml version="1.0" encoding="utf-8"?>
<!-- Generator: Adobe Illustrator 22.0.1, SVG Export Plug-In . SVG Version: 6.00 Build 0)  -->
<svg version="1.1" xmlns="http://www.w3.org/2000/svg" xmlns:xlink="http://www.w3.org/1999/xlink" x="0px" y="0px"
	 viewBox="0 0 111 48" style="enable-background:new 0 0 111 48;" xml:space="preserve">
<style type="text/css">
	.st0{fill:#FFFFFF;}
	.st1{font-family:'Avenir-Medium';}
	.st2{font-size:18px;}
</style>
<g id="Calque_1">
	<text transform="matrix(1 0 0 1 15 33.5827)" class="st0 st1 st2">Nouveau</text>
</g>
<g id="Calque_2">
	<path class="st0" d="M81.9,9.5l-63.8,0c0,0-17.2,0.2-18.1,18.5c0,0-0.7,7.9,6,13.9c0,0,4.7,4.6,11.8,4.6c7.1,0.1,71.3,0,71.3,0
		s16.6-3.1,14.7-21.7c0,0-2.7,1.4-2.9,1.4c-0.2,0,2.4,13.9-13.9,17.3l-69-0.1c0,0-14.1-0.8-14.8-15.5s15-15.5,15-15.5l63.4,0"/>
</g>
<g id="Calque_3">
	<path class="st0" d="M96,1.2c-6.8,0-12.4,5.3-12.4,11.9S89.2,25,96,25c6.8,0,12.4-5.3,12.4-11.9S102.9,1.2,96,1.2z M101.5,13.4
		h-3.9v3.9h-1.8v-3.9h-3.9v-1.8h3.9V7.7h1.8v3.9h3.9V13.4z"/>
</g>
</svg>
