<?xml version="1.0"?>
<svg xmlns="http://www.w3.org/2000/svg" xmlns:xlink="http://www.w3.org/1999/xlink" version="1.1" id="Capa_1" x="0px" y="0px" viewBox="0 0 490.667 490.667" style="enable-background:new 0 0 490.667 490.667;" xml:space="preserve" width="512px" height="512px" class=""><g><g>
	<g>
		<path d="M482.368,318.032l-44.971-61.589c-10.005-13.696-26.112-21.867-43.072-21.867h-20.992    c-5.888,0-10.667,4.779-10.667,10.667s4.779,10.667,10.667,10.667h20.992c10.176,0,19.84,4.907,25.835,13.12l37.291,50.88H33.344    l37.141-50.88c6.016-8.235,15.68-13.12,25.856-13.12h20.992c5.888,0,10.667-4.779,10.667-10.667s-4.779-10.667-10.667-10.667    H96.341c-16.96,0-33.067,8.171-43.072,21.867L9.365,316.773C3.413,322.747,0,331.003,0,339.408v97.835    c0,29.419,23.936,53.333,53.333,53.333h384c29.419,0,53.333-23.915,53.333-53.333v-97.835    C490.667,331.003,487.253,322.747,482.368,318.032z" data-original="#000000" class="active-path" data-old_color="#FFBA00" fill="#FFC100"/>
	</g>
</g><g>
	<g>
		<path d="M381.44,152.976l-128-149.333c-4.032-4.736-12.139-4.736-16.192,0l-128,149.333c-2.731,3.157-3.349,7.616-1.6,11.392    s5.525,6.208,9.685,6.208h32v117.333c0,5.888,4.779,10.667,10.667,10.667h170.667c5.888,0,10.667-4.779,10.667-10.667V170.576h32    c4.16,0,7.957-2.432,9.685-6.208C384.768,160.592,384.149,156.133,381.44,152.976z" data-original="#000000" class="active-path" data-old_color="#FFBA00" fill="#FFC100"/>
	</g>
</g></g> </svg>
