<?xml version="1.0" standalone="no"?>
<!DOCTYPE svg PUBLIC "-//W3C//DTD SVG 1.1//EN"
  "http://www.w3.org/Graphics/SVG/1.1/DTD/svg11.dtd">
<svg width="800" height="800" viewBox="0 0 800 800" version="1.1"
     xmlns="http://www.w3.org/2000/svg" xmlns:xlink="http://www.w3.org/1999/xlink">
  <defs>
    <pattern id="TrianglePattern" patternUnits="userSpaceOnUse"
             x="0" y="0" width="261" height="261">
      <image xlink:href="iconplaceholder.png" x="0" y="0" width="261" height="261" />
    </pattern>
  </defs>

  <filter  id="FlouGaussien_1">
  	<feGaussianBlur  stdDeviation="1"></feGaussianBlur>
  </filter>
  <filter  id="FlouGaussien_4">
  	<feGaussianBlur  stdDeviation="4"></feGaussianBlur>
  </filter>

  <g filter="url(#FlouGaussien_4)">
  	<path fill="#FFFFFF" d="M264,250.827c0,7.828-6.346,14.173-14.173,14.173H22.174C14.346,265,8,258.654,8,250.827V23.173
  		C8,15.346,14.346,9,22.174,9h227.654C257.655,9,264,15.346,264,23.173V250.827z"/>
  	<path fill="none" stroke="#241F20" stroke-miterlimit="10" d="M264,250.827c0,7.828-6.346,14.173-14.173,14.173H22.174
  		C14.346,265,8,258.654,8,250.827V23.173C8,15.346,14.346,9,22.174,9h227.654C257.655,9,264,15.346,264,23.173V250.827z"/>
  </g>
  <g filter="url(#FlouGaussien_1)">
  	<path fill="#FFFFFF" d="M260,245.827c0,7.828-6.346,14.173-14.173,14.173H18.174C10.346,260,4,253.654,4,245.827V18.173
  		C4,10.346,10.346,4,18.174,4h227.654C253.655,4,260,10.346,260,18.173V245.827z"/>
  	<path fill="none" stroke="#241F20" stroke-miterlimit="10" d="M260,245.827c0,7.828-6.346,14.173-14.173,14.173H18.174
  		C10.346,260,4,253.654,4,245.827V18.173C4,10.346,10.346,4,18.174,4h227.654C253.655,4,260,10.346,260,18.173V245.827z"/>
  </g>

  <path stroke="#241F20" stroke-miterlimit="10" d="M260,244.827c0,7.828-6.346,14.173-14.173,14.173H18.174
        	C10.346,259,4,252.654,4,244.827V17.173C4,9.346,10.346,3,18.174,3h227.654C253.655,3,260,9.346,260,17.173V244.827z" fill="url(#TrianglePattern)"/>


</svg>
