<?xml version="1.0" encoding="utf-8"?>
<!-- Generator: Adobe Illustrator 22.0.1, SVG Export Plug-In . SVG Version: 6.00 Build 0)  -->
<svg version="1.1" id="Calque_1" xmlns="http://www.w3.org/2000/svg" xmlns:xlink="http://www.w3.org/1999/xlink" x="0px" y="0px"
	 viewBox="0 0 33.6 22.2" style="enable-background:new 0 0 33.6 22.2;" xml:space="preserve">
<style type="text/css">
	.st0{fill:#FFFFFF;}
	.st1{fill:none;stroke:#FFFFFF;stroke-linecap:square;}
</style>
<title>Group 5</title>
<desc>Created with Sketch.</desc>
<path id="Rectangle-9" class="st0" d="M16.3,0.5L16.3,0.5c1.7,0,3,1.3,3,3l0,0c0,1.7-1.3,3-3,3l0,0c-1.7,0-3-1.3-3-3l0,0
	C13.3,1.8,14.7,0.5,16.3,0.5z"/>
<path id="Line-2" class="st1" d="M16.3,6v10"/>
<path id="Line-2_1_" class="st1" d="M29.3,11h-26"/>
<path id="Line-3" class="st1" d="M30.3,11v5"/>
<path id="Line-3_1_" class="st1" d="M3.3,11v5"/>
<path id="Rectangle-9_1_" class="st0" d="M3.3,15.5L3.3,15.5c1.7,0,3,1.3,3,3l0,0c0,1.7-1.3,3-3,3l0,0c-1.7,0-3-1.3-3-3l0,0
	C0.3,16.8,1.7,15.5,3.3,15.5z"/>
<path id="Rectangle-9_2_" class="st0" d="M16.3,15.5L16.3,15.5c1.7,0,3,1.3,3,3l0,0c0,1.7-1.3,3-3,3l0,0c-1.7,0-3-1.3-3-3l0,0
	C13.3,16.8,14.7,15.5,16.3,15.5z"/>
<path id="Rectangle-9_3_" class="st0" d="M30.3,15.5L30.3,15.5c1.7,0,3,1.3,3,3l0,0c0,1.7-1.3,3-3,3l0,0c-1.7,0-3-1.3-3-3l0,0
	C27.3,16.8,28.7,15.5,30.3,15.5z"/>
</svg>
