<?xml version="1.0"?>
<svg xmlns="http://www.w3.org/2000/svg" xmlns:xlink="http://www.w3.org/1999/xlink" version="1.1" id="Capa_1" x="0px" y="0px" viewBox="0 0 44 44" style="enable-background:new 0 0 44 44;" xml:space="preserve" width="512px" height="512px" class=""><g><g>
	<path style="fill:#F3C02F" d="M22,44C9.869,44,0,34.131,0,22S9.869,0,22,0s22,9.869,22,22S34.131,44,22,44z" data-original="#F0C419" class="active-path" data-old_color="#F0C419"/>
	<path style="fill:#FBD490" d="M22.745,32h-1.491C20.009,32,19,30.991,19,29.745V13.255C19,12.009,20.009,11,21.255,11h1.491   C23.991,11,25,12.009,25,13.255v16.491C25,30.991,23.991,32,22.745,32z" data-original="#FBD490" class=""/>
	<path style="fill:#F3C02F" d="M22,44C9.869,44,0,34.131,0,22S9.869,0,22,0s22,9.869,22,22S34.131,44,22,44z" data-original="#F0C419" class="active-path" data-old_color="#F0C419"/>
	<path style="fill:#FBD490" d="M22.745,32h-1.491C20.009,32,19,30.991,19,29.745V13.255C19,12.009,20.009,11,21.255,11h1.491   C23.991,11,25,12.009,25,13.255v16.491C25,30.991,23.991,32,22.745,32z" data-original="#FBD490" class=""/>
</g></g> </svg>
