<?xml version="1.0" encoding="UTF-8"?>
<svg width="30px" height="30px" viewBox="0 0 30 30" version="1.1" xmlns="http://www.w3.org/2000/svg" xmlns:xlink="http://www.w3.org/1999/xlink">
    <!-- Generator: Sketch 46.2 (44496) - http://www.bohemiancoding.com/sketch -->
    <title>fullscreen-button</title>
    <desc>Created with Sketch.</desc>
    <defs>
        <filter x="-13.5%" y="-9.6%" width="126.9%" height="126.9%" filterUnits="objectBoundingBox" id="filter-1">
            <feOffset dx="0" dy="1" in="SourceAlpha" result="shadowOffsetOuter1"></feOffset>
            <feGaussianBlur stdDeviation="1" in="shadowOffsetOuter1" result="shadowBlurOuter1"></feGaussianBlur>
            <feColorMatrix values="0 0 0 0 0.472204507   0 0 0 0 0.472204507   0 0 0 0 0.472204507  0 0 0 0.5 0" type="matrix" in="shadowBlurOuter1" result="shadowMatrixOuter1"></feColorMatrix>
            <feMerge>
                <feMergeNode in="shadowMatrixOuter1"></feMergeNode>
                <feMergeNode in="SourceGraphic"></feMergeNode>
            </feMerge>
        </filter>
    </defs>
    <g id="Page-1" stroke="none" stroke-width="1" fill="none" fill-rule="evenodd" opacity="0.9">
        <g id="Graphe_choix_conect" transform="translate(-171.000000, -963.000000)" fill="#CBC8C8">
            <g id="fullscreen-button" filter="url(#filter-1)" transform="translate(173.000000, 964.000000)">
                <path d="M26,3.24740235e-14 L26,9.75 L22.724,9.75 L22.724,3.276 L16.25,3.276 L16.25,0 L26,3.24740235e-14 Z M22.724,22.724 L22.724,16.25 L26,16.25 L26,26 L16.25,26 L16.25,22.724 L22.724,22.724 Z M3.276,16.25 L3.276,22.724 L9.75,22.724 L9.75,26 L1.72450595e-13,26 L0,16.25 L3.276,16.25 Z M0,3.22372337e-14 L9.75,0 L9.75,3.276 L3.276,3.276 L3.276,9.75 L1.88822916e-13,9.75 L0,3.22372337e-14 Z" id="fullscreen---material"></path>
            </g>
        </g>
    </g>
</svg>