<?xml version="1.0"?>
<svg xmlns="http://www.w3.org/2000/svg" height="512px" version="1.1" viewBox="-15 0 512 512.00098" width="512px" class=""><g><g id="surface1">
<path d="M 240.679688 210.699219 C 204.800781 210.699219 175.613281 239.890625 175.613281 275.765625 C 175.613281 311.640625 204.800781 340.832031 240.679688 340.832031 C 276.554688 340.832031 305.746094 311.640625 305.746094 275.765625 C 305.746094 239.890625 276.554688 210.699219 240.679688 210.699219 Z M 240.679688 310.800781 C 221.359375 310.800781 205.640625 295.082031 205.640625 275.765625 C 205.640625 256.449219 221.359375 240.730469 240.679688 240.730469 C 259.996094 240.730469 275.714844 256.449219 275.714844 275.765625 C 275.714844 295.082031 259.996094 310.800781 240.679688 310.800781 Z M 240.679688 310.800781 " data-original="#000000" class="active-path" data-old_color="#FDF9F9" fill="#F3F3F3"/>
<path d="M 481.355469 512 L 480.910156 496.550781 C 480.867188 495.042969 479.679688 459.179688 465.5 418.757812 C 447.621094 367.816406 416.914062 332.324219 376.320312 315.402344 L 376.320312 224.753906 C 376.320312 153.453125 344.851562 86.441406 289.980469 40.910156 L 240.679688 0 L 191.378906 40.910156 C 136.507812 86.445312 105.039062 153.453125 105.039062 224.753906 L 105.039062 315.402344 C 64.445312 332.324219 33.734375 367.816406 15.859375 418.757812 C 1.675781 459.179688 0.492188 495.046875 0.445312 496.550781 L 0 512 L 56.566406 512 L 123.363281 447.25 C 126.851562 448.402344 167.222656 468.589844 225.664062 471.570312 L 225.664062 512 L 255.691406 512 L 255.691406 471.570312 C 314.152344 468.585938 354.5 448.402344 357.992188 447.25 L 424.792969 512 Z M 328.222656 139.664062 L 153.132812 139.664062 C 156.1875 132.8125 159.609375 126.128906 163.390625 119.644531 L 317.964844 119.644531 C 321.746094 126.132812 325.167969 132.8125 328.222656 139.664062 Z M 210.554688 64.019531 L 240.679688 39.023438 L 270.800781 64.019531 C 280.246094 71.855469 288.886719 80.433594 296.691406 89.613281 L 184.664062 89.613281 C 192.46875 80.433594 201.109375 71.855469 210.554688 64.019531 Z M 44.398438 481.96875 L 31.859375 481.96875 C 35.804688 450.523438 50.625 379.488281 105.039062 348.742188 L 105.039062 423.191406 Z M 255.691406 441.484375 L 255.691406 390.253906 L 225.664062 390.253906 L 225.664062 441.484375 C 175.058594 438.601562 137.222656 420.308594 135.070312 419.59375 C 135.070312 411.839844 135.070312 234.640625 135.070312 224.753906 C 135.070312 205.917969 137.597656 187.429688 142.425781 169.691406 L 338.929688 169.691406 C 343.761719 187.429688 346.289062 205.917969 346.289062 224.753906 C 346.289062 234.722656 346.289062 411.878906 346.289062 419.59375 C 343.089844 420.65625 307.402344 438.539062 255.691406 441.484375 Z M 376.316406 348.703125 C 403.234375 363.804688 423.566406 390.378906 436.90625 427.980469 C 444.347656 448.953125 447.859375 468.886719 449.5 481.96875 L 436.960938 481.96875 L 376.316406 423.191406 Z M 376.316406 348.703125 " data-original="#000000" class="active-path" data-old_color="#FDF9F9" fill="#F3F3F3"/>
</g></g> </svg>
