<?xml version="1.0"?>
<svg xmlns="http://www.w3.org/2000/svg" xmlns:xlink="http://www.w3.org/1999/xlink" version="1.1" id="Layer_1" x="0px" y="0px" viewBox="0 0 505 505" style="enable-background:new 0 0 505 505;" xml:space="preserve" width="512px" height="512px" class=""><g><g>
	<path d="M252.5,505c-67.445,0-130.854-26.265-178.544-73.956C26.265,383.354,0,319.945,0,252.5S26.265,121.646,73.956,73.956   C121.646,26.265,185.055,0,252.5,0c58.124,0,114.865,20.231,159.771,56.967c44.282,36.225,75.227,86.808,87.134,142.432   c0.867,4.05-1.714,8.037-5.764,8.904c-4.051,0.867-8.037-1.713-8.904-5.764c-11.197-52.308-40.306-99.883-81.964-133.962   C360.539,34.027,307.171,15,252.5,15c-63.438,0-123.08,24.704-167.938,69.562C39.704,129.42,15,189.062,15,252.5   s24.704,123.08,69.563,167.938C129.42,465.296,189.062,490,252.5,490s123.08-24.704,167.938-69.562   C465.296,375.58,490,315.938,490,252.5c0-6.848-0.295-13.762-0.877-20.55c-0.354-4.127,2.705-7.759,6.832-8.113   c4.136-0.35,7.76,2.705,8.113,6.832c0.618,7.212,0.932,14.558,0.932,21.832c0,67.445-26.265,130.854-73.956,178.544   C383.354,478.735,319.945,505,252.5,505z" data-original="#000000" class="active-path" data-old_color="#000000" fill="#F3C02F"/>
	<path d="M252.5,450.378c-109.11,0-197.879-88.768-197.879-197.878c0-109.111,88.769-197.878,197.879-197.878   S450.378,143.389,450.378,252.5C450.378,361.61,361.61,450.378,252.5,450.378z M252.5,69.622   c-100.84,0-182.879,82.039-182.879,182.878S151.66,435.378,252.5,435.378c100.839,0,182.878-82.039,182.878-182.878   S353.339,69.622,252.5,69.622z" data-original="#000000" class="active-path" data-old_color="#000000" fill="#F3C02F"/>
	<g>
		<path d="M259.278,338.175c-25.915,0-49.93-10.146-69.447-29.34c-2.953-2.905-2.993-7.653-0.089-10.606    c2.905-2.954,7.653-2.991,10.606-0.089c16.654,16.378,37.031,25.035,58.93,25.035c28.098,0,54.317-14.811,71.938-40.636    c3.884-5.694,2.412-13.486-3.281-17.37c-5.692-3.885-13.485-2.413-17.372,3.281c-12.887,18.891-31.579,29.725-51.284,29.725    c-37.135,0-67.347-37.769-67.347-84.192c0-46.429,30.212-84.202,67.347-84.202c19.704,0,38.396,10.835,51.285,29.726    c3.886,5.693,11.677,7.165,17.37,3.281c5.694-3.884,7.166-11.677,3.282-17.371c-17.62-25.824-43.84-40.635-71.938-40.635    c-25.123,0-48.598,11.672-66.098,32.865c-16.927,20.5-26.249,47.61-26.249,76.337c0,21.426,5.203,42.126,15.046,59.863    c2.01,3.622,0.703,8.187-2.918,10.197c-3.623,2.011-8.187,0.704-10.197-2.918c-11.076-19.958-16.931-43.175-16.931-67.142    c0-32.205,10.541-62.708,29.683-85.888c20.402-24.707,47.983-38.314,77.664-38.314c33.134,0,63.87,17.197,84.328,47.182    c8.546,12.527,5.308,29.67-7.219,38.216c-12.524,8.544-29.667,5.308-38.215-7.217c-10.051-14.732-24.228-23.18-38.895-23.18    c-28.864,0-52.347,31.044-52.347,69.202c0,38.153,23.482,69.192,52.347,69.192c14.668,0,28.845-8.449,38.895-23.179    c8.548-12.526,25.688-15.764,38.216-7.218c12.525,8.545,15.764,25.688,7.218,38.215    C323.148,320.978,292.412,338.175,259.278,338.175z" data-original="#000000" class="active-path" data-old_color="#000000" fill="#F3C02F"/>
		<path d="M323.567,405.219H186.838c-15.163,0-27.5-12.336-27.5-27.5s12.337-27.5,27.5-27.5h136.729c15.163,0,27.5,12.336,27.5,27.5    S338.73,405.219,323.567,405.219z M186.838,365.219c-6.893,0-12.5,5.607-12.5,12.5s5.607,12.5,12.5,12.5h136.729    c6.893,0,12.5-5.607,12.5-12.5s-5.607-12.5-12.5-12.5H186.838z" data-original="#000000" class="active-path" data-old_color="#000000" fill="#F3C02F"/>
	</g>
</g></g> </svg>
