<?xml version="1.0"?>
<svg xmlns="http://www.w3.org/2000/svg" xmlns:xlink="http://www.w3.org/1999/xlink" version="1.1" id="Capa_1" x="0px" y="0px" width="512px" height="512px" viewBox="0 0 95 95" style="enable-background:new 0 0 95 95;" xml:space="preserve" class=""><g><g>
	<g>
		<path d="M60,23V2c0-1.105-0.896-2-2-2H37c-1.104,0-2,0.895-2,2v21c0,1.105,0.896,2,2,2h21C59.104,25,60,24.105,60,23z" data-original="#000000" class="active-path" data-old_color="#1A91C2" fill="#FFFFFF"/>
		<path d="M60,58V37c0-1.105-0.896-2-2-2H37c-1.104,0-2,0.895-2,2v21c0,1.105,0.896,2,2,2h21C59.104,60,60,59.105,60,58z" data-original="#000000" class="active-path" data-old_color="#1A91C2" fill="#FFFFFF"/>
		<path d="M60,93V72c0-1.105-0.896-2-2-2H37c-1.104,0-2,0.895-2,2v21c0,1.105,0.896,2,2,2h21C59.104,95,60,94.105,60,93z" data-original="#000000" class="active-path" data-old_color="#1A91C2" fill="#FFFFFF"/>
	</g>
</g></g> </svg>
