<?xml version="1.0" encoding="UTF-8"?>
<svg width="27px" height="22px" viewBox="0 0 27 22" version="1.1" xmlns="http://www.w3.org/2000/svg" xmlns:xlink="http://www.w3.org/1999/xlink">
    <!-- Generator: Sketch 46.2 (44496) - http://www.bohemiancoding.com/sketch -->
    <title>En groupe</title>
    <desc>Created with Sketch.</desc>
    <defs></defs>
    <g id="Page-1" stroke="none" stroke-width="1" fill="none" fill-rule="evenodd">
        <g id="Graphe_choix_conect" transform="translate(-91.000000, -323.000000)" stroke="#FFFFFF">
            <g id="En-groupe" transform="translate(85.000000, 318.000000)">
                <path d="M19.4997417,16.2241269 C22.3365017,16.2241269 24.6447005,13.9305164 24.6447005,11.1110825 C24.6447005,8.29312001 22.3365017,6 19.4997417,6 C16.6644622,6 14.357744,8.29312001 14.357744,11.1110825 C14.357744,13.9305164 16.6644622,16.2241269 19.4997417,16.2241269 L19.4997417,16.2241269 Z M19.4997417,6.73576043 C21.9283597,6.73576043 23.9044187,8.69876926 23.9044187,11.1110825 C23.9044187,13.5248672 21.9283597,15.4883665 19.4997417,15.4883665 C17.0726043,15.4883665 15.0980258,13.5248672 15.0980258,11.1110825 C15.0980258,8.69876926 17.0726043,6.73576043 19.4997417,6.73576043 L19.4997417,6.73576043 Z M27.258389,14.4926374 C26.5546277,14.4926374 25.8952833,14.2581751 25.3509294,13.8147568 C25.1934961,13.6857535 24.9595671,13.7083168 24.8302645,13.8657695 C24.7004684,14.0227317 24.7236639,14.2547415 24.8815907,14.3837448 C25.5498185,14.9282076 26.3937398,15.2283978 27.258389,15.2283978 C29.3316717,15.2283978 31.0180337,13.5528261 31.0180337,11.4931874 C31.0180337,9.43403918 29.3316717,7.75895794 27.258389,7.75895794 C26.3927527,7.75895794 25.5488314,8.05865768 24.8810972,8.6031204 C24.7236639,8.73163322 24.7004684,8.96364301 24.8302645,9.12060524 C24.9595671,9.27756746 25.1934961,9.30062129 25.3514229,9.17210847 C25.8863999,8.73506677 26.5640046,8.49471837 27.258389,8.49471837 C28.9230361,8.49471837 30.2777519,9.83968843 30.2777519,11.4931874 C30.2777519,13.1471768 28.9230361,14.4926374 27.258389,14.4926374 L27.258389,14.4926374 Z M24.8218746,18.8939563 C23.4849256,16.6793174 20.6782704,16.9564538 20.5988135,16.968226 L18.3123296,16.968226 C18.2116513,16.966264 15.9532981,16.9074031 14.6262195,18.8032125 C13.8903794,19.8519164 12.8095679,23.8760354 12.4295565,25.5506262 C12.3841526,25.7492815 12.509507,25.9459748 12.7088895,25.9906109 C12.9082721,26.036228 13.1061741,25.9111488 13.1510846,25.7124934 C13.5508368,23.954026 14.6049981,20.1202237 15.2337442,19.2240675 C16.3254131,17.6642554 18.2713673,17.70742 18.299498,17.7039864 L20.6382952,17.7020244 C20.6629712,17.6990813 23.1113301,17.4651095 24.1975703,19.2893049 C24.2059601,19.3035296 24.215337,19.3172638 24.225701,19.3305075 C24.8924482,20.1668218 26.0087932,23.9309722 26.4198964,25.713965 C26.4593781,25.8841709 26.6118761,25.99944 26.7806604,25.99944 C26.8078041,25.99944 26.8354413,25.996497 26.863572,25.9906109 C27.062461,25.9449937 27.1873219,25.7478099 27.1414244,25.5491546 C26.8186615,24.1507193 25.6746793,19.9971064 24.8218746,18.8939563 L24.8218746,18.8939563 Z M11.7401074,15.2283978 C12.6052501,15.2283978 13.4501584,14.9282076 14.1183862,14.3837448 C14.276313,14.2547415 14.2995085,14.0227317 14.1697124,13.8657695 C14.0399163,13.7083168 13.8069743,13.6857535 13.6490475,13.8147568 C13.1046936,14.2581751 12.4448557,14.4926374 11.7401074,14.4926374 C10.0754602,14.4926374 8.72123799,13.1471768 8.72123799,11.4931874 C8.72123799,9.83968843 10.0754602,8.49471837 11.7401074,8.49471837 C12.4448557,8.49471837 13.1042,8.72869018 13.6470734,9.17210847 C13.8054937,9.30062129 14.0389293,9.27756746 14.1682318,9.12060524 C14.2980279,8.96364301 14.2748324,8.73163322 14.1169056,8.6031204 C13.4496649,8.05865768 12.6052501,7.75895794 11.7401074,7.75895794 C9.66731819,7.75895794 7.98095614,9.43403918 7.98095614,11.4931874 C7.98095614,13.5528261 9.66731819,15.2283978 11.7401074,15.2283978 L11.7401074,15.2283978 Z M31.9912576,20.3953981 C31.5969341,18.627611 31.1986625,17.4484323 30.8077937,16.8897449 C29.8355568,15.4981766 28.1689356,15.5413413 28.1121807,15.5428128 L26.5210682,15.5452653 C26.4406243,15.5344742 24.5302036,15.3461195 23.5066406,16.7857574 C23.388689,16.9515488 23.4286642,17.1815965 23.5954744,17.2983372 C23.761791,17.4150778 23.9932525,17.3763278 24.1112041,17.2100459 C24.8796166,16.1284781 26.4253251,16.2736681 26.4805995,16.2785732 L28.1255058,16.2785732 C28.1383373,16.2692536 29.455052,16.2432567 30.200269,17.3096188 C30.4307434,17.6392395 30.803352,18.4701583 31.268249,20.5543223 C31.3067436,20.7255093 31.4597352,20.8427404 31.6295065,20.8427404 C31.6561567,20.8427404 31.6828068,20.8397974 31.7094569,20.8339113 C31.909333,20.7897657 32.035181,20.5935629 31.9912576,20.3953981 L31.9912576,20.3953981 Z M14.9776066,17.3483689 C15.0822331,17.5239704 15.3087594,17.5818502 15.4844529,17.4773722 C15.66064,17.3738752 15.7188755,17.148242 15.6147425,16.9736216 C14.6355964,15.3309138 12.5657684,15.5354552 12.5183903,15.5428128 L10.9006277,15.5428128 C10.8335089,15.5428128 9.16392653,15.4967051 8.19119618,16.8897449 C7.79835328,17.4513753 7.40057517,18.6310446 7.00871931,20.3953981 C6.96479592,20.5940534 7.09113736,20.7902562 7.29051994,20.8339113 C7.31766361,20.8397974 7.34431375,20.8427404 7.37047038,20.8427404 C7.54024168,20.8427404 7.69372678,20.7255093 7.73172792,20.5538318 C8.09199842,18.9307443 8.47102272,17.7785435 8.79921434,17.3096188 C9.53702858,16.2525763 10.8187032,16.2785732 10.8877962,16.2785732 L12.5573785,16.2766112 C12.5746518,16.2746492 14.2442341,16.1176869 14.9776066,17.3483689 L14.9776066,17.3483689 Z" id="Fill-92"></path>
            </g>
        </g>
    </g>
</svg>