<?xml version="1.0" encoding="UTF-8"?>
<svg width="25px" height="25px" viewBox="0 0 25 25" version="1.1" xmlns="http://www.w3.org/2000/svg" xmlns:xlink="http://www.w3.org/1999/xlink">
    <!-- Generator: Sketch 46.2 (44496) - http://www.bohemiancoding.com/sketch -->
    <title>Roulette_paramètre_fini</title>
    <desc>Created with Sketch.</desc>
    <defs></defs>
    <g id="Page-1" stroke="none" stroke-width="1" fill="none" fill-rule="evenodd">
        <g id="Profil_V1" transform="translate(-27.000000, -953.000000)" fill-rule="nonzero" fill="#FFFFFF">
            <g id="Roulette_paramètre_fini" transform="translate(27.000000, 953.000000)">
                <g id="Group" transform="translate(0.000000, 9.000000)">
                    <path d="M7.55319149,3.06 C7.55319149,2.1 7.76595745,1.26 8.13829787,0.48 L1.06382979,0.48 C0.478723404,0.48 0,1.02 0,1.68 L0,4.68 C0,5.34 0.478723404,5.88 1.06382979,5.88 L8.29787234,5.88 C7.81914894,5.04 7.55319149,4.08 7.55319149,3.06 Z" id="Shape"></path>
                    <path d="M23.7234043,0.48 L16.3297872,0.48 C16.7021277,1.26 16.9148936,2.1 16.9148936,3.06 C16.9148936,4.08 16.6489362,5.04 16.1702128,5.88 L23.7234043,5.88 C24.3085106,5.88 24.787234,5.34 24.787234,4.68 L24.787234,1.68 C24.787234,1.02 24.3085106,0.48 23.7234043,0.48 Z" id="Shape"></path>
                </g>
                <g id="Group" transform="translate(2.000000, 2.000000)">
                    <path d="M5.70769231,11.6846154 L0.592307692,16.8538462 C0.161538462,17.2307692 0.161538462,17.9307692 0.592307692,18.3615385 L2.47692308,20.2461538 C2.85384615,20.6769231 3.55384615,20.6769231 3.98461538,20.2461538 L9.26153846,14.9153846 C7.59230769,14.5923077 6.19230769,13.3538462 5.70769231,11.6846154 Z" id="Shape"></path>
                    <path d="M20.1923077,2.42307692 L18.3076923,0.538461538 C17.9307692,0.107692308 17.2307692,0.107692308 16.8,0.538461538 L11.6307692,5.76153846 C13.2461538,6.24615385 14.5384615,7.59230769 14.8615385,9.31538462 L20.1923077,3.93076923 C20.6230769,3.55384615 20.6230769,2.85384615 20.1923077,2.42307692 Z" id="Shape"></path>
                </g>
                <g id="Group" transform="translate(9.000000, 0.000000)">
                    <path d="M3,7.60638298 C4.08,7.60638298 5.04,7.87234043 5.88,8.35106383 L5.88,1.06382979 C5.88,0.478723404 5.34,0 4.68,0 L1.68,0 C1.02,0 0.48,0.478723404 0.48,1.06382979 L0.48,8.19148936 C1.2,7.81914894 2.1,7.60638298 3,7.60638298 Z" id="Shape"></path>
                    <path d="M3,16.9680851 C2.1,16.9680851 1.2,16.7553191 0.48,16.3829787 L0.48,23.7234043 C0.48,24.3085106 1.02,24.787234 1.68,24.787234 L4.68,24.787234 C5.34,24.787234 5.88,24.3085106 5.88,23.7234043 L5.88,16.2234043 C5.04,16.7021277 4.08,16.9680851 3,16.9680851 Z" id="Shape"></path>
                </g>
                <g id="Group" transform="translate(2.000000, 2.000000)">
                    <path d="M20.2461538,16.8 L14.8076923,11.4153846 C14.3769231,13.0846154 13.0846154,14.3769231 11.4692308,14.8615385 L16.8538462,20.1923077 C17.2307692,20.6230769 17.9307692,20.6230769 18.3615385,20.1923077 L20.2461538,18.3076923 C20.6769231,17.9307692 20.6769231,17.2307692 20.2461538,16.8 Z" id="Shape"></path>
                    <path d="M9.04615385,5.70769231 L3.93076923,0.592307692 C3.55384615,0.161538462 2.85384615,0.161538462 2.42307692,0.592307692 L0.538461538,2.47692308 C0.107692308,2.85384615 0.107692308,3.55384615 0.538461538,3.98461538 L5.65384615,9.04615385 C6.08461538,7.43076923 7.43076923,6.13846154 9.04615385,5.70769231 Z" id="Shape"></path>
                </g>
                <path d="M12.5,3 C7.23428571,3 3,7.23428571 3,12.5 C3,17.7657143 7.23428571,22 12.5,22 C17.7657143,22 22,17.7657143 22,12.5 C22,7.23428571 17.7657143,3 12.5,3 Z M12.6085714,16.5844099 C10.2738432,16.5844099 8.41559006,14.7261568 8.41559006,12.3914286 C8.41559006,10.0567003 10.2738432,8.1984472 12.6085714,8.1984472 C14.9432997,8.1984472 16.8015528,10.0567003 16.8015528,12.3914286 C16.8015528,14.7261568 14.9432997,16.5844099 12.6085714,16.5844099 Z" id="Shape"></path>
            </g>
        </g>
    </g>
</svg>