<?xml version="1.0" encoding="UTF-8"?>
<svg width="31px" height="36px" viewBox="0 0 31 36" version="1.1" xmlns="http://www.w3.org/2000/svg" xmlns:xlink="http://www.w3.org/1999/xlink">
    <!-- Generator: Sketch 46.2 (44496) - http://www.bohemiancoding.com/sketch -->
    <title>Share Icon Solid</title>
    <desc>Created with Sketch.</desc>
    <defs></defs>
    <g id="Page-1" stroke="none" stroke-width="1" fill="none" fill-rule="evenodd">
        <g id="Graphe_choix_conect" transform="translate(-535.000000, -894.000000)" fill="#FFFFFF">
            <path d="M557.808775,901.965415 L546.723021,909.842941 C546.982349,910.512345 547.124514,911.239656 547.124514,912 C547.124514,912.842648 546.949906,913.644725 546.634718,914.372379 L557.982279,921.898375 C558.737994,921.334233 559.677039,921 560.694553,921 C563.192728,921 565.217899,923.014719 565.217899,925.5 C565.217899,927.985281 563.192728,930 560.694553,930 C558.196377,930 556.171206,927.985281 556.171206,925.5 C556.171206,925.118387 556.218954,924.747869 556.308828,924.39405 L544.78076,916.748338 C543.761267,917.533038 542.482141,918 541.093385,918 C537.762485,918 535.062257,915.313709 535.062257,912 C535.062257,908.686291 537.762485,906 541.093385,906 C542.569028,906 543.920892,906.52722 544.969013,907.402627 L556.257818,899.380812 C556.201,899.095967 556.171206,898.801445 556.171206,898.5 C556.171206,896.014719 558.196377,894 560.694553,894 C563.192728,894 565.217899,896.014719 565.217899,898.5 C565.217899,900.985281 563.192728,903 560.694553,903 C559.597636,903 558.591914,902.611568 557.808775,901.965415 Z" id="Share-Icon-Solid"></path>
        </g>
    </g>
</svg>