<?xml version="1.0" encoding="utf-8"?>
<!-- Generator: Adobe Illustrator 22.0.1, SVG Export Plug-In . SVG Version: 6.00 Build 0)  -->
<svg version="1.1" id="Calque_1" xmlns="http://www.w3.org/2000/svg" xmlns:xlink="http://www.w3.org/1999/xlink" x="0px" y="0px"
	 viewBox="0 0 23 22" style="enable-background:new 0 0 23 22;" xml:space="preserve">
<style type="text/css">
	.st0{fill:#FFFFFF;}
</style>
<title>Group 3</title>
<desc>Created with Sketch.</desc>
<g id="Page-1">
	<g id="Graphe_choix_conect" transform="translate(-94.000000, -252.000000)">
		<g id="Group-3" transform="translate(94.000000, 252.000000)">
			<path id="Rectangle-4" class="st0" d="M2.5,12.1L2.5,12.1c1.4,0,2.5,1.1,2.5,2.5v4.3c0,1.4-1.1,2.5-2.5,2.5l0,0
				c-1.4,0-2.5-1.1-2.5-2.5v-4.3C0,13.2,1.1,12.1,2.5,12.1z"/>
			<path id="Rectangle-4_1_" class="st0" d="M11.5,5.8L11.5,5.8C12.9,5.8,14,7,14,8.4v10.5c0,1.4-1.1,2.5-2.5,2.5l0,0
				c-1.4,0-2.5-1.1-2.5-2.5V8.4C9,7,10.1,5.8,11.5,5.8z"/>
			<path id="Rectangle-4_2_" class="st0" d="M20.5,1.2L20.5,1.2c1.4,0,2.5,1.1,2.5,2.5v15.1c0,1.4-1.1,2.5-2.5,2.5l0,0
				c-1.4,0-2.5-1.1-2.5-2.5V3.7C18,2.3,19.1,1.2,20.5,1.2z"/>
		</g>
	</g>
</g>
</svg>
