<?xml version="1.0" encoding="utf-8"?>
<!-- Generator: Adobe Illustrator 22.0.1, SVG Export Plug-In . SVG Version: 6.00 Build 0)  -->
<svg version="1.1" id="Calque_1" xmlns="http://www.w3.org/2000/svg" xmlns:xlink="http://www.w3.org/1999/xlink" x="0px" y="0px"
	 viewBox="0 0 40 32" style="enable-background:new 0 0 40 32;" xml:space="preserve">
<style type="text/css">
	.st0{fill:#FFFFFF;}
	.st1{fill:#09F5B9;}
</style>
<g id="Group-4">
	<path id="Rectangle" class="st0" d="M5,0h30c2.8,0,5,2.2,5,5v22c0,2.8-2.2,5-5,5H5c-2.8,0-5-2.2-5-5V5C0,2.2,2.2,0,5,0z"/>
</g>
<path id="Rectangle-4" class="st1" d="M11.5,16.7L11.5,16.7c1.4,0,2.5,1.1,2.5,2.5v4.3c0,1.4-1.1,2.5-2.5,2.5l0,0
	C10.1,26,9,24.9,9,23.5v-4.3C9,17.8,10.1,16.7,11.5,16.7z"/>
<path id="Rectangle-4_1_" class="st1" d="M20.5,10.5L20.5,10.5c1.4,0,2.5,1.1,2.5,2.5v10.5c0,1.4-1.1,2.5-2.5,2.5l0,0
	c-1.4,0-2.5-1.1-2.5-2.5V13C18,11.6,19.1,10.5,20.5,10.5z"/>
<path id="Rectangle-4_2_" class="st1" d="M29.5,5.9L29.5,5.9C30.9,5.9,32,7,32,8.4v15.1c0,1.4-1.1,2.5-2.5,2.5l0,0
	c-1.4,0-2.5-1.1-2.5-2.5V8.4C27,7,28.1,5.9,29.5,5.9z"/>
</svg>
