<?xml version="1.0" encoding="utf-8"?>
<!-- Generator: Adobe Illustrator 22.0.1, SVG Export Plug-In . SVG Version: 6.00 Build 0)  -->
<svg version="1.1" xmlns="http://www.w3.org/2000/svg" xmlns:xlink="http://www.w3.org/1999/xlink" x="0px" y="0px"
	 viewBox="0 0 28 17" style="enable-background:new 0 0 28 17;" xml:space="preserve">
<style type="text/css">
	.st0{fill:#FFFFFF;}
</style>
<g id="Calque_1">
	<title>Group 2</title>
	<desc>Created with Sketch.</desc>
	<path id="Path" class="st0" d="M14,0c2.2,0,4,1.8,4,4s-1.8,4-4,4s-4-1.8-4-4S11.8,0,14,0L14,0z"/>
	<path id="Path_1_" class="st0" d="M5.5,0C7.4,0,9,1.6,9,3.5S7.4,7,5.5,7S2,5.4,2,3.5S3.6,0,5.5,0L5.5,0z"/>
	<path id="Path_3_" class="st0" d="M22.5,0C24.4,0,26,1.6,26,3.5S24.4,7,22.5,7S19,5.4,19,3.5S20.6,0,22.5,0L22.5,0z"/>
	<path id="Path_5_" class="st0" d="M8.2,15.9V14c0-2.5,3.9-3.9,5.8-3.9s5.8,1.4,5.8,3.9v1.9H8.2z"/>
</g>
<g id="Calque_2">
	<path class="st0" d="M17.9,10.6c0,0,1.2,0.6,1.9,1.5c0.7,0.9,0.7,1.6,0.7,1.9H28v-1.7c0,0,0.1-1.5-2.1-2.5S22.4,9,22.4,9
		S19.8,9,17.9,10.6z"/>
	<path class="st0" d="M10.1,10.6c0,0-1.2,0.6-1.9,1.5S7.5,13.7,7.5,14H0l0-1.7c0,0-0.1-1.5,2.1-2.5S5.6,9,5.6,9S8.2,9,10.1,10.6z"/>
</g>
</svg>
