<?xml version="1.0"?>
<svg xmlns="http://www.w3.org/2000/svg" height="512px" viewBox="-6 0 396 396" width="512px" class=""><g><path d="m223.238281 314.78125-82.890625 21.992188c-3.441406.914062-7.109375-.074219-9.628906-2.589844s-3.511719-6.179688-2.605469-9.625l21.988281-83.457032c.453126-1.71875 1.351563-3.28125 2.609376-4.535156l154.347656-153.902344v-52.664062c-.019532-16.5625-13.441406-29.9804688-30-30h-247.058594c-16.5625.0195312-29.9804688 13.4375-30 30v336c.0195312 16.5625 13.4375 29.980469 30 30h247.054688c16.5625-.019531 29.984374-13.4375 30-30v-133.125l-79.316407 79.3125c-1.246093 1.246094-2.796875 2.140625-4.5 2.59375zm0 0" data-original="#000000" class="active-path" data-old_color="#696969" fill="#AAA9A9"/><path d="m371.128906 89.324219c-11.710937-11.675781-30.65625-11.695313-42.386718-.039063l-5.574219 5.558594 46.816406 46.816406 5.527344-5.527344c11.695312-11.722656 11.695312-30.703124 0-42.425781zm0 0" data-original="#000000" class="active-path" data-old_color="#696969" fill="#AAA9A9"/><path d="m173.890625 243.695312 46.8125 47.246094 135.140625-135.140625-46.835938-46.835937zm0 0" data-original="#000000" class="active-path" data-old_color="#696969" fill="#AAA9A9"/><path d="m201.40625 299.882812-36.425781-36.761718-13.152344 49.914062zm0 0" data-original="#000000" class="active-path" data-old_color="#696969" fill="#AAA9A9"/></g> </svg>
