<?xml version="1.0" encoding="UTF-8" standalone="no"?>
<svg
   version="1.1"
   id="Layer_1"
   x="0px"
   y="0px"
   viewBox="0 0 512 512"
   style="enable-background:new 0 0 512 512;"
   xml:space="preserve"
   width="512px"
   height="512px"
   class=""
   sodipodi:docname="plus-second.svg"
   inkscape:version="1.1.2 (0a00cf5339, 2022-02-04)"
   xmlns:inkscape="http://www.inkscape.org/namespaces/inkscape"
   xmlns:sodipodi="http://sodipodi.sourceforge.net/DTD/sodipodi-0.dtd"
   xmlns="http://www.w3.org/2000/svg"
   xmlns:svg="http://www.w3.org/2000/svg"><defs
   id="defs15" /><sodipodi:namedview
   id="namedview13"
   pagecolor="#ffffff"
   bordercolor="#666666"
   borderopacity="1.0"
   inkscape:pageshadow="2"
   inkscape:pageopacity="0.0"
   inkscape:pagecheckerboard="0"
   showgrid="false"
   inkscape:zoom="1.3320312"
   inkscape:cx="237.98241"
   inkscape:cy="255.62464"
   inkscape:window-width="1920"
   inkscape:window-height="1031"
   inkscape:window-x="0"
   inkscape:window-y="25"
   inkscape:window-maximized="1"
   inkscape:current-layer="Layer_1" /><g
   id="g10"><circle
     style="fill:#1A91C2"
     cx="256"
     cy="256"
     r="256"
     data-original="#25B6D2"
     class="active-path"
     data-old_color="#43B05C"
     id="circle2" /><g
     id="g8">
	<rect
   x="240"
   y="120"
   style="fill:#FFFFFF"
   width="32"
   height="272"
   data-original="#FFFFFF"
   class=""
   data-old_color="#43B05C"
   id="rect4" />
	<rect
   x="120"
   y="240"
   style="fill:#FFFFFF"
   width="272"
   height="32"
   data-original="#FFFFFF"
   class=""
   data-old_color="#43B05C"
   id="rect6" />
</g></g> <path
   style="fill:none;stroke:#000000;stroke-width:1.3194;stroke-linejoin:bevel"
   d="M 243.23754,511.16305 C 168.06494,507.87323 97.089321,469.99856 51.134021,408.65098 33.44223,385.0335 18.778334,355.6561 10.537023,327.31965 3.6221179,303.54384 0.86477378,283.56145 0.79930963,256.75073 0.74801954,235.74494 1.3894021,227.90879 4.6090169,210.20528 11.673031,171.36278 27.617673,134.74194 51.134021,103.34902 94.696202,45.196117 159.41818,8.7384549 231.97654,1.481076 244.07101,0.27137186 270.62719,0.4744665 283.40176,1.8743625 340.82444,8.1670051 392.70383,32.704309 434.18778,73.19137 c 22.13606,21.604109 36.13369,40.70536 50.06711,68.32183 13.57023,26.89664 21.44448,52.73933 25.61972,84.08211 1.80907,13.58035 1.80254,47.06365 -0.0119,60.80938 -6.54808,49.60764 -25.09965,93.08374 -56.14436,131.57583 -6.64448,8.23842 -28.985,30.36542 -37.46584,37.10774 -49.94837,39.70931 -109.07657,58.87296 -173.01501,56.07479 z m 28.90322,-178.58827 v -60.05865 h 60.05865 60.05865 V 256 239.48387 H 332.19941 272.14076 V 179.42522 119.36657 H 256 239.85924 v 60.05865 60.05865 H 179.80059 119.74194 V 256 272.51613 h 60.05865 60.05865 v 60.05865 60.05865 H 256 272.14076 Z"
   id="path869" /><path
   style="fill:#00ffff;stroke:#000000;stroke-width:1.3194;stroke-linejoin:bevel"
   d="M 235.35484,509.6582 C 151.79627,502.96512 75.322966,453.84037 34.259225,380.47884 18.069124,351.55476 7.8611822,321.23775 3.7107042,289.75145 2.09942,277.52794 1.4407239,244.36423 2.5694553,232.2924 5.0142231,206.14551 12.411359,177.96626 23.342054,153.15958 44.142598,105.95375 81.286464,63.891409 125.17985,37.83676 156.02399,19.528001 187.99762,8.4494422 224.91053,3.2810278 c 12.9864,-1.818309 47.98024,-1.8015168 61.86953,0.029689 18.17647,2.3964396 36.16149,6.5819433 52.92668,12.3171882 52.77966,18.05551 104.08845,59.284063 132.56251,106.518985 15.86056,26.31069 27.5689,55.67402 32.95681,82.65228 3.59997,18.02573 4.24257,24.08921 4.67042,44.06887 0.47342,22.10834 -0.34918,35.04655 -3.21638,50.58863 -7.79633,42.26109 -22.84257,76.54639 -48.96283,111.56972 -8.32724,11.16558 -37.81853,40.24805 -49.50071,48.81451 -29.39791,21.55727 -62.22222,36.72747 -95.65292,44.20727 -24.86475,5.56327 -52.61761,7.5798 -77.2088,5.61003 z M 272.8915,333.32551 v -60.05865 h 60.05865 60.05865 V 256 238.73314 H 332.95015 272.8915 V 178.67449 118.61584 H 256 239.1085 v 60.05865 60.05865 H 179.04985 118.9912 V 256 273.26686 h 60.05865 60.05865 v 60.05865 60.05865 H 256 272.8915 Z"
   id="path908" /><path
   style="fill:#00a4ac;stroke:#000000;stroke-width:1.3194;stroke-linejoin:bevel;fill-opacity:1"
   d="m 242.86218,508.90102 c -29.0153,-1.17554 -62.04633,-8.98134 -87.83578,-20.75709 -11.5894,-5.29186 -13.75256,-6.37189 -21.95741,-10.96295 C 64.960699,439.07068 18.083902,372.16689 5.5289168,295.15246 3.3064524,281.51949 2.6529585,238.99015 4.4543536,225.21995 8.2401216,196.28084 16.150344,170.33014 29.283111,143.7654 45.907143,110.13859 69.328705,81.224636 99.847511,56.653542 107.52578,50.471666 125.59662,38.614611 135.53359,33.238371 165.06862,17.258913 200.93028,6.3639579 232.81314,3.6843521 c 15.21148,-1.2784548 47.42392,-0.4607874 59.82633,1.5186074 48.7149,7.7747805 88.59814,25.9552975 126.645,57.7303055 45.72538,38.187755 75.79712,90.913285 86.77902,152.151785 1.84192,10.27108 2.05049,13.39461 2.3727,35.5321 0.39399,27.06978 -0.12973,34.59378 -3.66469,52.64798 -6.88741,35.17627 -19.49355,65.36742 -39.94378,95.6636 -10.15873,15.04974 -20.69252,26.86558 -39.8364,44.68487 -12.62008,11.74688 -21.76297,18.91376 -33.23977,26.05582 -46.32816,28.83021 -94.2102,41.44688 -148.88937,39.2316 z m 30.78006,-174.82476 v -60.05865 h 60.05865 60.05866 v -18.0176 -18.0176 h -60.05866 -60.05865 v -60.05865 -60.05865 h -17.64223 -17.64223 v 60.05865 60.05865 h -60.05865 -60.05866 v 18.0176 18.0176 h 60.05866 60.05865 v 60.05865 60.05865 h 17.64223 17.64223 z"
   id="path864" /></svg>
